<?xml version="1.0" encoding="utf-8"?>
<!-- Generator: Adobe Illustrator 23.0.1, SVG Export Plug-In . SVG Version: 6.00 Build 0)  -->
<svg version="1.1" id="Capa_1" xmlns="http://www.w3.org/2000/svg" xmlns:xlink="http://www.w3.org/1999/xlink" x="0px" y="0px"
	 viewBox="0 0 512 512" style="enable-background:new 0 0 512 512;" xml:space="preserve">
<style type="text/css">
	.st0{fill:#434A53;}
</style>
<g>
	<g>
		<path class="st0" d="M380.8,183.5L313.4,11.3C309.6,2.2,299.3-2.3,290,1.2L117.9,68.6c-9.3,3.7-13.8,14.1-10.1,23.4l67.9,172.1
			c3.7,9.3,14.1,13.8,23.4,10.1l171.6-67.4C379.9,203.2,384.5,192.7,380.8,183.5z M193.7,254.5L127.9,87.1l167.5-65.9l65.8,167.6
			L193.7,254.5z"/>
	</g>
</g>
<g>
	<g>
		<path class="st0" d="M214.6,291.5H30.2c-10,0-18,8.1-18,18V494c0,10,8.1,18,18,18h184.4c10,0,18-8.1,18-18V309.5
			C232.6,299.6,224.5,291.5,214.6,291.5z M212.3,491.6H32.4V311.7h179.9L212.3,491.6L212.3,491.6z"/>
	</g>
</g>
<g>
	<g>
		<path class="st0" d="M486.8,290.5l-178.2-47.4c-9.7-2.4-19.5,3.5-22.1,13.2l-47.4,178.2c-2.6,9.6,3.1,19.5,12.7,22.1l0,0L430,504
			c9.6,2.6,19.5-3.1,22.1-12.7l0,0l47-178.6C501.8,303,496.3,293.2,486.8,290.5z M433.3,482.8l-173.9-45.7l46.3-173.8l173.8,46.3
			L433.3,482.8z"/>
	</g>
</g>
<g>
	<g>
		<path class="st0" d="M304.8,157.7c-1.8-3.5-4.3-6.6-7.2-9.3L247,95.1l-6-6.5c-1.5-1.6-3.2-2.9-5-4.2c-1.8-1.2-3.9-2-6.1-2.3
			c-5.2-0.4-10.2,1.6-13.8,5.5c-1.4,1.7-2.4,3.7-2.8,5.9c-0.5,2.5-0.8,5.1-0.7,7.7c0,2.9,0,5.5,0,7.6v73.7c0.2,3,0.4,5.4,0.5,7
			c0.1,1.5,0.4,3,0.9,4.5c1,2.4,2.9,4.2,5.4,5.1c2.5,1,5.2,1,7.7,0c2.5-0.7,4.5-2.6,5.4-5.1c0.8-3.9,1-7.9,0.8-11.8v-14.5l40-15.7
			l9.5,10.1l4.4,4.4c1.2,1.3,2.6,2.5,4.2,3.4c1.1,0.7,2.4,1.1,3.7,1.2c1.5,0.1,3-0.1,4.4-0.7c2.4-1,4.3-2.8,5.4-5.2
			C305.8,162.8,305.8,160.1,304.8,157.7z M232.4,150.3l-1.4-46l30.8,34.4L232.4,150.3z"/>
	</g>
</g>
<g>
	<g>
		<path class="st0" d="M147.6,393.8c9.6-3.6,16-12.9,15.8-23.2c0-3-0.5-5.9-1.5-8.7c-1-2.8-2.5-5.3-4.4-7.6
			c-1.9-2.2-4.1-4.2-6.6-5.7c-3.1-1.9-6.5-3.1-10.1-3.6c-4.3-0.7-8.7-1-13.1-0.9H94.2c-3.6-0.4-7.3,0.7-10.1,3
			c-2.3,2.8-3.4,6.5-3,10.1v79.4c-0.4,3.6,0.7,7.3,2.9,10.1c2.8,2.4,6.5,3.6,10.2,3.1h32.3c4.7-0.1,9.4-0.6,14.1-1.3
			c3.8-0.4,7.6-1.4,11.1-2.8c5-2.1,9.3-5.6,12.3-10.1c3.1-4.8,4.6-10.3,4.6-16C168.7,407.1,159.9,396.3,147.6,393.8z M102.6,360.4
			h16.9c5.9-0.3,11.8,0.6,17.3,2.6c3.8,1.8,6.1,5.9,5.7,10.1c0,2.4-0.6,4.7-1.8,6.8c-1.4,2.7-3.8,4.8-6.7,5.8
			c-4,1.2-8.2,1.7-12.4,1.5h-19.5L102.6,360.4z M146.7,418.2c0,10.4-7.2,15.6-21.7,15.6h-23l0.5-30.8h22c5.8-0.4,11.7,0.9,16.8,3.6
			C145.1,409.3,147.1,413.7,146.7,418.2z"/>
	</g>
</g>
<g>
	<g>
		<path class="st0" d="M420.1,343.5c-2.6-6.4-6.7-12-12-16.4c-5.9-4.9-12.8-8.4-20.2-10.1c-6.6-1.8-13.5-2.3-20.2-1.5
			c-6.5,0.8-12.8,3-18.4,6.4c-5.8,3.6-10.8,8.3-14.7,14c-4.4,6.4-7.5,13.5-9.4,21.1c-1.3,4.8-2.1,9.7-2.4,14.7
			c-0.3,4.6,0,9.3,0.9,13.9c0.8,4.3,2.2,8.6,4,12.6c1.9,4.1,4.5,7.9,7.7,11.1c3.1,3.2,6.8,5.9,10.7,8c4.5,2.4,9.3,4.2,14.3,5.5
			c6.3,1.8,13,2.3,19.5,1.5c5.5-0.8,10.8-2.9,15.5-5.9c3.9-2.4,7.3-5.5,10.1-9.1c2.4-3,4.2-6.4,5.2-10.1c0.7-2.4,0.4-5-0.9-7.1
			c-1.2-2.1-3.3-3.7-5.7-4.3c-2.3-0.8-4.9-0.5-7,0.9c-2,1.6-3.6,3.5-5,5.7c-3.1,4.6-7.6,8.1-12.8,10.1c-5.3,1.7-10.9,1.7-16.2,0
			c-4.8-0.9-9.2-3.1-12.9-6.4c-3.5-4-5.7-9-6.3-14.3c-0.7-6.8,0-13.7,1.9-20.2c1.8-10.2,7-19.4,14.8-26.2c6.5-5,15-6.6,22.9-4.3
			c4.8,1.1,9.1,3.6,12.5,7.3c3.2,4,5.5,8.8,6.5,13.9c0.5,2.7,1.4,5.3,2.7,7.7c1.3,1.8,3.3,3,5.5,3.4c2.3,0.6,4.8,0.2,6.8-1.1
			c2.1-1.2,3.5-3.2,4.2-5.6C422.7,353.5,422.2,348.3,420.1,343.5z"/>
	</g>
</g>
</svg>
