<?xml version="1.0" encoding="utf-8"?>
<!-- Generator: Adobe Illustrator 23.0.1, SVG Export Plug-In . SVG Version: 6.00 Build 0)  -->
<svg version="1.1" id="Layer_1" xmlns="http://www.w3.org/2000/svg" xmlns:xlink="http://www.w3.org/1999/xlink" x="0px" y="0px"
	 viewBox="0 0 512 512" style="enable-background:new 0 0 512 512;" xml:space="preserve">
<style type="text/css">
	.st0{fill:#434A53;}
</style>
<path class="st0" d="M321,334.2c18-18,18-47.4,0-65.5c-18.5-18.5-48.8-18.1-66.8,1.4c-18.1-16.2-46-15.8-63.6,1.8
	c-18.1,18.1-18.1,47.4,0,65.5c18.5,18.5,48.8,18.2,66.8-1.4c8.5,7.6,19.4,11.8,30.9,11.8C300.7,347.7,312.3,342.9,321,334.2z
	 M201.3,326.7c-10-10-12.2-25.6-4.7-38.3l43,43C228.2,338.4,212.1,337.6,201.3,326.7z M243.9,314.5l-36.7-36.7
	c12-7.3,28.2-5.8,38.7,5.1C241.4,293.1,240.9,304.4,243.9,314.5z M310.4,279.3c10.4,10.4,11.9,26.3,4.7,38.3l-43-43
	C284.1,267.4,300,268.9,310.4,279.3z M261.5,285.3l43,43C276.2,345.4,245,312.6,261.5,285.3z"/>
<path class="st0" d="M273.4,426.6h79.5c8.6,0,15.6-7,15.6-15.6V196c0-8.6-7-15.6-15.6-15.6h-194c-8.6,0-15.6,7-15.6,15.6v215
	c0,8.6,7,15.6,15.6,15.6h79.5c4.1,0,7.5-3.4,7.5-7.5s-3.4-7.5-7.5-7.5h-79.5c-0.3,0-0.6-0.3-0.6-0.6V196c0-0.3,0.3-0.6,0.6-0.6h194
	c0.3,0,0.6,0.3,0.6,0.6v215c0,0.3-0.3,0.6-0.6,0.6h-79.5c-4.1,0-7.5,3.4-7.5,7.5S269.2,426.6,273.4,426.6z"/>
<path class="st0" d="M417.2,296.8c4.1,0,7.5-3.4,7.5-7.5V149.5c0-24.5-19.9-44.3-44.3-44.3h-11.9V83.9h3.1c9.6,0,17.3-7.8,17.3-17.3
	V17.3c0-9.6-7.8-17.3-17.4-17.3c-2,0-228.9,0-231.3,0c-9.6,0-17.3,7.8-17.3,17.3v49.2c0,9.6,7.8,17.3,17.3,17.3h3.1V105h-11.9
	c-24.5,0-44.3,19.9-44.3,44.3v318.2c0,24.5,20,44.3,44.3,44.3h249c24.3,0,44.3-19.8,44.3-44.3V324.4c0-4.1-3.4-7.5-7.5-7.5
	s-7.5,3.4-7.5,7.5v143.3c0,1.1-0.1,2.2-0.2,3.3H102.2c-0.1-1.1-0.2-2.2-0.2-3.3V149.5c0-16.2,13.2-29.3,29.3-29.3h249
	c16.2,0,29.3,13.2,29.3,29.3v139.9C409.7,293.5,413.1,296.8,417.2,296.8z M403.3,485.9C397.6,493,389,497,380.4,497h-249
	c-8.7,0-17.2-4-22.9-11.1H403.3z M263.4,15h47.8v53.9h-47.8V15z M200.6,15h47.8v53.9h-47.8V15z M140.2,68.9c-1.3,0-2.3-1.1-2.3-2.3
	V17.3c0-1.3,1.1-2.3,2.3-2.3h45.4v53.9C176.4,68.9,149.7,68.9,140.2,68.9z M353.5,105.1H158.2V83.9h195.2v21.2H353.5z M326.1,68.9
	V15h45.4c1.3,0,2.4,1.1,2.4,2.3v49.2c0,1.3-1.1,2.3-2.4,2.3C362,68.9,335.2,68.9,326.1,68.9z"/>
</svg>
