<?xml version="1.0" encoding="utf-8"?>
<!-- Generator: Adobe Illustrator 23.0.1, SVG Export Plug-In . SVG Version: 6.00 Build 0)  -->
<svg version="1.1" id="Layer_1" xmlns="http://www.w3.org/2000/svg" xmlns:xlink="http://www.w3.org/1999/xlink" x="0px" y="0px"
	 viewBox="0 0 512 512" style="enable-background:new 0 0 512 512;" xml:space="preserve">
<style type="text/css">
	.st0{fill:#FFFFFF;}
</style>
<g>
	<g>
		<g>
			<path class="st0" d="M155.4,146.5c16.7,0,30.2-13.5,30.2-30.2s-13.5-30.2-30.2-30.2s-30.2,13.5-30.2,30.2
				S138.7,146.5,155.4,146.5z M155.4,101.1c8.4,0,15.2,6.8,15.2,15.2s-6.8,15.2-15.2,15.2s-15.2-6.8-15.2-15.2
				S147,101.1,155.4,101.1z"/>
			<path class="st0" d="M91.7,216.8c20.1,0,36.4-16.3,36.4-36.4S111.8,144,91.7,144s-36.4,16.3-36.4,36.4S71.6,216.8,91.7,216.8z
				 M91.7,158.9c11.8,0,21.4,9.6,21.4,21.4s-9.6,21.4-21.4,21.4s-21.4-9.6-21.4-21.4S79.9,158.9,91.7,158.9z"/>
			<path class="st0" d="M154.6,296.4c-20.1,0-36.4,16.3-36.4,36.4s16.3,36.4,36.4,36.4s36.4-16.3,36.4-36.4
				C191,312.8,174.7,296.4,154.6,296.4z M154.6,354.3c-11.8,0-21.4-9.6-21.4-21.4s9.6-21.4,21.4-21.4S176,321,176,332.9
				S166.4,354.3,154.6,354.3z"/>
			<path class="st0" d="M84.6,233.8c-20.3,0-36.8,16.5-36.8,36.8s16.5,36.8,36.8,36.8s36.8-16.5,36.8-36.8
				C121.4,250.3,104.9,233.8,84.6,233.8z M84.6,292.4c-12,0-21.8-9.8-21.8-21.8s9.8-21.8,21.8-21.8s21.8,9.8,21.8,21.8
				C106.4,282.6,96.7,292.4,84.6,292.4z"/>
			<path class="st0" d="M504.6,135.6c-14.8-14.8-35.4-4.1-44.2,3.6l-85.5,75.1c-5.2-33.2-22-40.7-36-40.7
				c-16.4,0-32.3,10.8-36.9,14.1l-30.7,23.1c-17,12.8-41.3,8-52.2-10.2c-9.5-15.8-5.6-36,9.2-47.1l30.8-23.1
				c44.4-34.1,31.3-79.4-49.5-89C111.7,29.5,16.7,98.1,1.9,201.6c-15.3,107,62.3,203.9,168.5,213.9c-3.9,15.6-3,32.2,3.2,47
				c0.8,1.8,2.2,3.3,4,4c45.8,19.1,104.4-14.1,100.8-60.5c2.2-0.4-0.8,1.4,44.6-29.3c15.6,7.4,33.3-9.2,27.3-25.3l106.4-121.2
				c2.7-3.1,2.4-7.9-0.7-10.6s-7.9-2.4-10.6,0.7L340.9,339.6l-40.2-40.2c3.3-2.9,161.8-142,169.6-148.8c0.2-0.1,15.2-12.8,23.7-4.3
				s-4.1,23.6-4.2,23.7l-28.2,32.2c-2.7,3.1-2.4,7.9,0.7,10.6c3.1,2.7,7.9,2.4,10.6-0.7l28.2-32.2
				C508.7,171,519.4,150.4,504.6,135.6z M252,437.7c-17.5,17.5-43.3,24.1-65.6,16.2c-11.6-32.8,10.6-77.3,43.8-77.3
				c9.1,0,17.6,3.4,23.8,9.7C267.7,399.8,266.7,422.9,252,437.7z M278.1,389c-11.5-11.5-16.3-16.3-27-27l22.4-33.2l37.7,37.7
				L278.1,389z M336.6,358.1c0,2-1.2,2.8-2.7,4.3s-4.1,1.5-5.6,0l-50.5-50.6c-1.5-1.5-1.5-4,0-5.6l1.5-1.5c1.5-1.5,4.1-1.5,5.6,0
				C339.6,359.6,336.6,355.8,336.6,358.1z M288.7,289.8c-15.9-5.9-32.6,11.6-25.3,27.3c-29.8,44.1-28.9,42.1-29.3,44.5
				c-26.3-2-47.5,15.6-58.5,39.3c-99.7-7.3-173-97.4-158.8-197.2C29.6,113.9,108.2,52,194.2,55.1c39.4,1.4,72.1,15.6,74.8,31.8
				c2.4,14.4-16.9,29.7-19.1,31.4l-30.7,23.1c-24.2,18.2-27.3,53-6.8,75.2c17.2,18.7,46.5,22.2,67.9,6.2l30.7-23
				c7-5.2,18.6-11.2,28-11.2c13.1,0,20.6,12.7,22.3,37.8L288.7,289.8z"/>
		</g>
	</g>
</g>
</svg>
