<?xml version="1.0" encoding="utf-8"?>
<!-- Generator: Adobe Illustrator 23.0.1, SVG Export Plug-In . SVG Version: 6.00 Build 0)  -->
<svg version="1.1" id="Layer_1" xmlns="http://www.w3.org/2000/svg" xmlns:xlink="http://www.w3.org/1999/xlink" x="0px" y="0px"
	 viewBox="0 0 512 512" style="enable-background:new 0 0 512 512;" xml:space="preserve">
<style type="text/css">
	.st0{fill:#FFFFFF;}
</style>
<g>
	<g>
		<g>
			<path class="st0" d="M139.6,244.4c0-6.4-5.2-11.6-11.6-11.6s-11.6,5.2-11.6,11.6c0,30.6,33.7,72.5,37.5,77.2
				c2.3,2.8,5.6,4.3,9,4.3c2.6,0,5.2-0.9,7.4-2.6c5-4.1,5.7-11.4,1.6-16.4C159.4,291.6,139.6,261.2,139.6,244.4z"/>
			<path class="st0" d="M384,232.7c-6.4,0-11.6,5.2-11.6,11.6c0,16.8-19.8,47.2-32.3,62.4c-4.1,5-3.3,12.3,1.6,16.4
				c2.2,1.8,4.8,2.6,7.4,2.6c3.4,0,6.7-1.5,9-4.3c3.8-4.7,37.5-46.6,37.5-77.2C395.6,237.9,390.4,232.7,384,232.7z"/>
			<path class="st0" d="M256,232.7c-6.4,0-11.6,5.2-11.6,11.6v69.8c0,6.4,5.2,11.6,11.6,11.6c6.4,0,11.6-5.2,11.6-11.6v-69.8
				C267.6,237.9,262.4,232.7,256,232.7z"/>
			<path class="st0" d="M384,46.5c-7.1,0-14.4,0.9-22.1,2.4C336.3,19,298.4,0,256,0s-80.3,19-105.9,48.9c-7.7-1.4-15-2.4-22.1-2.4
				C57.4,46.5,0,104,0,174.5c0,48.4,27.3,92.3,70.1,114.1l-0.2,175.9c0,12.7,4.9,24.6,13.9,33.6s20.9,13.9,33.6,13.9h277.4
				c26.2,0,47.5-21.3,47.5-47.5V288.4c42.7-21.8,69.8-65.7,69.8-113.9C512,104,454.6,46.5,384,46.5z M418.9,464.5
				c0,13.3-10.9,24.2-24.2,24.2H117.3c-6.5,0-12.5-2.5-17.1-7.1s-7.1-10.7-7.1-17.1l0.1-45.6h325.7L418.9,464.5L418.9,464.5z
				 M426.1,270.3c-0.6,0.2-1.2,0.5-1.7,0.9c-1.5,0.9-2.7,2.1-3.6,3.5s-1.5,3-1.8,4.7c-0.1,0.6-0.1,1.3-0.1,2v114.3H93.2l0.1-114.1
				c0-0.6,0-1.3-0.1-1.9c-0.2-1.8-0.9-3.4-1.8-4.8c-0.9-1.3-2-2.5-3.5-3.4c-0.6-0.4-1.2-0.7-1.8-0.9c-38.2-16.7-62.9-54.3-62.9-95.9
				c0-57.8,47-104.7,104.7-104.7c2.3,0,4.6,0.3,7,0.5c-11.8,20.5-18.6,44.1-18.6,69.4c0,6.4,5.2,11.6,11.6,11.6
				c6.4,0,11.6-5.2,11.6-11.6c0-64.2,52.2-116.4,116.4-116.4s116.4,52.2,116.4,116.4c0,6.4,5.2,11.6,11.6,11.6s11.6-5.2,11.6-11.6
				c0-25.3-6.8-48.9-18.6-69.4c2.3-0.2,4.7-0.5,7-0.5c57.8,0,104.7,47,104.7,104.7C488.7,216,464.2,253.6,426.1,270.3z"/>
		</g>
	</g>
</g>
</svg>
