<?xml version="1.0" encoding="utf-8"?>
<!-- Generator: Adobe Illustrator 23.0.1, SVG Export Plug-In . SVG Version: 6.00 Build 0)  -->
<svg version="1.1" id="Layer_1" xmlns="http://www.w3.org/2000/svg" xmlns:xlink="http://www.w3.org/1999/xlink" x="0px" y="0px"
	 viewBox="0 0 512 512" style="enable-background:new 0 0 512 512;" xml:space="preserve">
<style type="text/css">
	.st0{fill:#FFFFFF;}
</style>
<g>
	<g>
		<g>
			<path class="st0" d="M468.9,439.2V180.5c0-4.5-3.6-8.1-8.1-8.1s-8.1,3.6-8.1,8.1v258.7c0,4.5,3.6,8.1,8.1,8.1
				C465.3,447.3,468.9,443.7,468.9,439.2z"/>
			<path class="st0" d="M185.9,388h-75.5c-16.3,0-29.6,13.3-29.6,29.6v64.7c0,4.8,1.2,9.4,3.2,13.5H45.8c-4.5,0-8.1,3.6-8.1,8.1
				s3.6,8.1,8.1,8.1h140.1c16.3,0,29.6-13.3,29.6-29.6v-64.7C215.6,401.3,202.3,388,185.9,388z M199.4,482.4c0,7.4-6,13.5-13.5,13.5
				h-75.5c-7.4,0-13.5-6-13.5-13.5v-35h83.5c4.5,0,8.1-3.6,8.1-8.1s-3.6-8.1-8.1-8.1H97v-13.5c0-7.4,6-13.5,13.5-13.5H186
				c7.4,0,13.5,6,13.5,13.5L199.4,482.4L199.4,482.4z"/>
			<path class="st0" d="M18.9,495.8H8.1c-4.5,0-8.1,3.6-8.1,8.1s3.6,8.1,8.1,8.1h10.8c4.5,0,8.1-3.6,8.1-8.1
				C26.9,499.5,23.3,495.8,18.9,495.8z"/>
			<path class="st0" d="M439.2,97h-10.8V29.6c0-16.3-13.3-29.6-29.6-29.6h-37.7c-16.3,0-29.6,13.3-29.6,29.6V97h-10.8
				c-35.7,0-65.9,25.5-71.8,60.6c-0.7,4.4,2.2,8.6,6.6,9.3s8.6-2.2,9.3-6.6c4.6-27.3,28.1-47.1,55.8-47.1h118.6
				c31.2,0,56.6,25.4,56.6,56.6v312.6c0,7.4-6,13.5-13.5,13.5H353c-4.5,0-8.1,3.6-8.1,8.1s3.6,8.1,8.1,8.1h129.3
				c16.3,0,29.6-13.3,29.6-29.6V169.8C512,129.6,479.4,97,439.2,97z M412.3,97h-64.7V29.6c0-7.4,6-13.5,13.5-13.5h37.7
				c7.4,0,13.5,6,13.5,13.5V97z"/>
			<path class="st0" d="M285.6,312.6h-2.7v-99.7c0-16.3-13.3-29.6-29.6-29.6h-21.6c-16.3,0-29.6,13.3-29.6,29.6v99.7h-2.7
				c-28.2,0-51.2,23-51.2,51.2c0,4.5,3.6,8.1,8.1,8.1s8.1-3.6,8.1-8.1c0-19.3,15.7-35,35-35h86.2c19.3,0,35,15.7,35,35v118.6
				c0,7.4-6,13.5-13.5,13.5h-72.8c-4.5,0-8.1,3.6-8.1,8.1s3.6,8.1,8.1,8.1h72.8c16.3,0,29.6-13.3,29.6-29.6V363.8
				C336.8,335.6,313.9,312.6,285.6,312.6z M266.8,312.6h-48.5v-99.7c0-7.4,6-13.5,13.5-13.5h21.6c7.4,0,13.5,6,13.5,13.5
				L266.8,312.6L266.8,312.6z"/>
			<path class="st0" d="M296.4,460.8v-97c0-4.5-3.6-8.1-8.1-8.1s-8.1,3.6-8.1,8.1v97c0,4.5,3.6,8.1,8.1,8.1S296.4,465.3,296.4,460.8
				z"/>
		</g>
	</g>
</g>
</svg>
