<?xml version="1.0" encoding="utf-8"?>
<!-- Generator: Adobe Illustrator 23.0.1, SVG Export Plug-In . SVG Version: 6.00 Build 0)  -->
<svg version="1.1" id="Capa_1" xmlns="http://www.w3.org/2000/svg" xmlns:xlink="http://www.w3.org/1999/xlink" x="0px" y="0px"
	 viewBox="0 0 512 512" style="enable-background:new 0 0 512 512;" xml:space="preserve">
<style type="text/css">
	.st0{fill:#434A53;}
</style>
<path class="st0" d="M511.9,172.1c0.1-0.3,0.1-0.7,0.1-1c0-0.4,0-0.8,0-1.2c0-0.4-0.1-0.7-0.2-1c-0.1-0.4-0.2-0.8-0.4-1.2
	c-0.1-0.2-0.1-0.4-0.2-0.6c-0.1-0.1-0.2-0.3-0.3-0.4c-0.1-0.1-0.1-0.3-0.2-0.4L425.4,29.5c-0.4-0.6-0.9-1.2-1.4-1.7c0,0,0,0,0,0
	c-0.7-0.7-1.6-1.2-2.5-1.6c-0.1-0.1-0.2-0.2-0.3-0.2c-0.1,0-0.2,0-0.3,0c-0.9-0.3-1.7-0.5-2.7-0.5H93.8c-0.9,0-1.8,0.2-2.6,0.5
	c-0.1,0-0.2,0-0.3,0c-0.1,0-0.2,0.1-0.3,0.2c-0.9,0.4-1.7,0.8-2.4,1.5c0,0-0.1,0.1-0.1,0.1c-0.5,0.5-1,1.1-1.4,1.7L1.3,166.1
	c-0.1,0.1-0.1,0.3-0.2,0.4c-0.1,0.1-0.2,0.3-0.3,0.4c-0.1,0.2-0.1,0.4-0.2,0.6c-0.2,0.4-0.3,0.8-0.4,1.2c-0.1,0.3-0.1,0.7-0.2,1.1
	C0,170.2,0,170.6,0,171.1c0,0.4,0.1,0.7,0.1,1c0.1,0.4,0.2,0.8,0.3,1.2c0.1,0.3,0.2,0.7,0.4,1c0.1,0.2,0.1,0.3,0.2,0.5
	c0.1,0.2,0.3,0.4,0.5,0.7c0.1,0.2,0.2,0.4,0.3,0.5l247.4,307.2c0,0,0,0,0.1,0.1l0,0.1c0,0,0.1,0,0.1,0.1c0.7,0.8,1.6,1.5,2.5,2
	c0.3,0.1,0.5,0.3,0.8,0.4c1,0.4,2.1,0.7,3.3,0.7c1,0,2-0.2,2.9-0.5c0.1-0.1,0.2-0.2,0.4-0.2c0.4-0.2,0.8-0.5,1.2-0.7
	c0.6-0.4,1.3-0.8,1.8-1.4c0.1-0.1,0.3-0.2,0.4-0.3L510.2,176c0.1-0.2,0.2-0.4,0.3-0.5c0.2-0.2,0.4-0.4,0.5-0.7
	c0.1-0.2,0.1-0.3,0.2-0.5c0.2-0.3,0.3-0.6,0.4-1C511.7,172.9,511.8,172.5,511.9,172.1z M273.9,42.6h131.9L364.4,154L273.9,42.6z
	 M349,162.1H163l93-114.5L349,162.1z M147,154.7L106,42.6h132L147,154.7z M355,179.2L254.5,448.9l-98.6-269.8H355z M420.1,53.3
	l68,108.8H379.6L420.1,53.3z M91.8,53.4l39.7,108.7H23.9L91.8,53.4z M137.8,179.2l92.5,253.2l-204-253.2H137.8z M276.5,438.9
	l96.8-259.7h112.5L276.5,438.9z"/>
</svg>
