<?xml version="1.0" encoding="utf-8"?>
<!-- Generator: Adobe Illustrator 23.0.1, SVG Export Plug-In . SVG Version: 6.00 Build 0)  -->
<svg version="1.1" id="Capa_1" xmlns="http://www.w3.org/2000/svg" xmlns:xlink="http://www.w3.org/1999/xlink" x="0px" y="0px"
	 viewBox="0 0 512 512" style="enable-background:new 0 0 512 512;" xml:space="preserve">
<style type="text/css">
	.st0{fill:#FFFFFF;}
</style>
<g>
	<g>
		<g>
			<path class="st0" d="M509.6,184.1L427,101.5c-1.2-1.2-2.7-2-4.4-2.3l-90.8-16.5c-4.5-0.8-8.8,2.2-9.6,6.6c-0.1,0.5-0.1,1-0.1,1.5
				c0,2.6-0.3,5.2-0.7,7.8l-57.1-14.3v-2.6c22.3-4.6,36.8-26.4,32.2-48.7S270.1-3.7,247.7,0.8c-19.2,3.9-33,20.8-33,40.4h16.5
				c0-13.7,11.1-24.8,24.8-24.8c13.7,0,24.8,11.1,24.8,24.8S269.7,66.1,256,66.1c-4.6,0-8.3,3.7-8.3,8.3v10.1l-57.1,14.3
				c-0.4-2.6-0.7-5.2-0.7-7.8c0-2.4-1.1-4.8-3-6.3c-1.9-1.6-4.4-2.2-6.8-1.8L89.4,99.2c-1.7,0.3-3.2,1.1-4.4,2.3L2.4,184.1
				c-3.2,3.2-3.2,8.5,0,11.7l66.1,66.1c3.2,3.2,8.5,3.2,11.7,0L99.1,243v54.4H41.3c-22.7-0.1-41.2,18.3-41.3,41
				c0,13.1,6.2,25.5,16.8,33.3C-1.4,385-5.4,410.6,7.9,428.9c2.5,3.4,5.5,6.4,8.9,8.9C-1.5,451.1-5.5,476.9,8,495.2
				c7.8,10.6,20.1,16.8,33.3,16.8h297.3c2.2,0,4.3-0.9,5.8-2.4l66.1-66.1c1.5-1.6,2.4-3.7,2.3-5.8h0.1V242.9l18.9,18.9
				c3.2,3.2,8.5,3.2,11.7,0l66.1-66.1C512.8,192.5,512.8,187.3,509.6,184.1z M256,99.3l60.1,15c-12.4,21.2-35.5,34-60.1,33.3
				c-24.6,0.7-47.6-12-60.1-33.3L256,99.3z M16.5,338.6c0-13.7,11.1-24.8,24.8-24.8H223c13.7,0,24.8,11.1,24.8,24.8
				c0,13.7-11.1,24.8-24.8,24.8H41.3C27.6,363.4,16.5,352.3,16.5,338.6z M16.5,404.6c0-13.7,11.1-24.8,24.8-24.8H223
				c13.7,0,24.8,11.1,24.8,24.8c0,13.7-11.1,24.8-24.8,24.8H41.3C27.6,429.4,16.5,418.3,16.5,404.6z M223,495.5h-16.5H41.3
				c-13.7,0-24.8-11.1-24.8-24.8c0-13.7,11.1-24.8,24.8-24.8H223c13.7,0,24.8,11.1,24.8,24.8C247.7,484.4,236.7,495.5,223,495.5z
				 M346.8,483.8v-37.9h37.9L346.8,483.8z M437.7,244.3l-52-52L374,204l22.4,22.4v203h-57.8c-4.6,0-8.3,3.7-8.3,8.3v57.8h-74.5
				c13.7-17.8,10.5-43.4-7.4-57.1c-0.3-0.2-0.6-0.5-0.9-0.7c18.2-13.3,22.2-38.9,8.9-57.2c-2.5-3.4-5.5-6.4-8.9-8.9
				c18.3-13.5,22.2-39.2,8.8-57.6c-7.8-10.6-20.2-16.8-33.3-16.8H115.6v-70.9L138,204l-11.7-11.7l-52,52l-54.4-54.4l75-74.9
				l79.3-14.4c5.4,35.8,40.1,63.5,81.9,63.5s76.5-27.7,81.9-63.5l79.3,14.4l74.9,74.9L437.7,244.3z"/>
			<rect x="33" y="330.3" class="st0" width="198.2" height="16.5"/>
			<rect x="33" y="396.4" class="st0" width="189.9" height="16.5"/>
			<rect x="33" y="462.4" class="st0" width="189.9" height="16.5"/>
		</g>
	</g>
</g>
</svg>
