<?xml version="1.0" encoding="utf-8"?>
<!-- Generator: Adobe Illustrator 22.1.0, SVG Export Plug-In . SVG Version: 6.00 Build 0)  -->
<svg version="1.1" id="Capa_1" xmlns="http://www.w3.org/2000/svg" xmlns:xlink="http://www.w3.org/1999/xlink" x="0px" y="0px"
	 viewBox="0 0 512 512" style="enable-background:new 0 0 512 512;" xml:space="preserve">
<style type="text/css">
	.st0{fill:#FFFFFF;}
</style>
<g>
	<path class="st0" d="M340.6,187.2l48.5,17.4c1.1,0.4,2.2,0.6,3.3,0.6c4,0,7.8-2.5,9.3-6.5l11.7-32.7c0.9-2.5,0.8-5.2-0.4-7.5
		c-1.1-2.4-3.1-4.2-5.6-5.1L359,135.9c-5.1-1.8-10.8,0.8-12.6,6l-11.7,32.7c-0.9,2.5-0.8,5.2,0.4,7.5
		C336.1,184.5,338.1,186.3,340.6,187.2z M361.6,157.8l29.9,10.8l-5.1,14.1l-29.9-10.8L361.6,157.8z"/>
	<circle class="st0" cx="120.7" cy="436.3" r="10.3"/>
	<path class="st0" d="M337.1,272.3l2.7-2.7c13-13,28.1-23.1,45-30.2l64.7-27.2c0,0,17.6-7.6,21.5-9.8c5.3-3,10.5-7.1,15.9-12.5
		c32-32,33.6-83.5,3.7-117.3c-2.3-2.6-5.8-3.8-9.2-3.2c-3.4,0.6-6.2,3-7.4,6.3l-23.6,63.5l-17.6-6.5l24.8-67.4
		c1.2-3.3,0.6-6.9-1.6-9.6s-5.6-4.1-9.1-3.6c-33.4,4.7-60.5,28.3-70,59.9l-40.7-15.1c-2.7-1-5.8-0.8-8.3,0.7
		c-2.5,1.4-4.3,3.9-4.8,6.8l-9.4,50.7c-4.4,23.7-14.6,45.6-29.9,64l-86.6-86.6l6.2-6.2c3.9-3.9,3.9-10.1,0-14l-6.5-6.5
		c19.8-24.4,45.2-25.6,63.7-21.9c4.1,0.8,8.2-1,10.4-4.6c2.1-3.6,1.8-8.1-0.8-11.3c-8.7-10.8-19.6-19.2-32.2-25.1
		c-30.6-14.1-66.7-9.4-92.8,11.1l-5.4-5.4c-3.9-3.9-10.1-3.9-14,0l-59.9,59.9c-3.8,3.8-3.9,10-0.1,13.9c3.4,3.5,1.8,11.2-3.5,16.4
		s-12.9,6.9-16.4,3.5c-3.9-3.8-10.1-3.8-13.9,0.1L2.9,171.6c-3.9,3.9-3.9,10.1,0,14l63.6,63.6c1.9,1.9,4.5,2.9,7,2.9
		c2.5,0,5.1-1,7-2.9l29.2-29.2c3.8-3.8,3.9-10,0.1-13.9c-3.4-3.5-1.8-11.2,3.5-16.4c5.2-5.2,12.9-6.9,16.4-3.5
		c3.9,3.8,10,3.7,13.9-0.1l5.4-5.4l87.1,87.1L92.9,410.8c-7.1,7.1-10.9,16.4-10.9,26.4c0,10,3.9,19.4,10.9,26.4
		c7.3,7.3,16.9,10.9,26.4,10.9c9.6,0,19.1-3.6,26.4-10.9l143.1-143.1l153.7,153.7c1.9,1.9,4.5,2.9,7,2.9s5.1-1,7-2.9l34.4-34.4
		c1.9-1.9,2.9-4.4,2.9-7c0-2.6-1-5.1-2.9-7L337.1,272.3z M432.4,76.3l-18.1,49.4l-18.8-7C400.9,99.6,414.5,84.1,432.4,76.3z
		 M229.7,60.8c1.6,0.7,3.1,1.5,4.6,2.3c-20,2.5-37.6,12.2-51.5,28.5l-23.6-23.6C179.4,53.3,206.5,50.2,229.7,60.8z M132.8,69.6
		l49.6,49.6l-44.9,44.9l-49.6-49.6L132.8,69.6z M73.4,228.2l-49.6-49.6L39,163.3l49.6,49.6L73.4,228.2z M99.2,175.7
		c-3.6,3.6-6.3,7.6-8.1,11.8l-26.5-26.5c4.2-1.9,8.2-4.6,11.8-8.1c4-4,6.9-8.5,8.8-13.2l27.4,27.4
		C107.7,168.8,103.2,171.7,99.2,175.7z M162.8,166.7l20.4-20.4l87.1,87.1l-20.4,20.4L162.8,166.7z M131.8,449.7
		c-3.3,3.3-7.8,5.2-12.5,5.2c-4.7,0-9.1-1.8-12.5-5.2c-6.9-6.9-6.9-18.1,0-24.9l181.9-181.9c23.1-23.1,38.4-52.2,44.3-84.3l7.2-39.2
		L452.8,161c5.1,1.9,10.8-0.7,12.7-5.8l20.3-54.7c11.9,24.7,7.5,55.1-12.8,75.3c-4.2,4.2-8,7.2-11.7,9.3c-2.3,1.3-20.7,9.3-20.7,9.3
		l-63.4,26.7c-19.2,8.1-36.5,19.7-51.3,34.5L131.8,449.7z M449.5,453.4L302.8,306.6l20.4-20.4L469.9,433L449.5,453.4z"/>
</g>
</svg>
