<?xml version="1.0" encoding="utf-8"?>
<!-- Generator: Adobe Illustrator 22.1.0, SVG Export Plug-In . SVG Version: 6.00 Build 0)  -->
<svg version="1.1" id="Capa_1" xmlns="http://www.w3.org/2000/svg" xmlns:xlink="http://www.w3.org/1999/xlink" x="0px" y="0px"
	 viewBox="0 0 512 512" style="enable-background:new 0 0 512 512;" xml:space="preserve">
<style type="text/css">
	.st0{fill:#FFFFFF;}
</style>
<g>
	<g>
		<path class="st0" d="M255.9,168.8c-48.1,0-87.2,39-87.2,87.2s39,87.2,87.2,87.2s87.2-39,87.2-87.2
			C343.1,207.9,304.1,168.8,255.9,168.8z M255.9,314.1c-32.1,0-58.1-26-58.1-58.1s26-58.1,58.1-58.1s58.1,26,58.1,58.1
			C313.9,288,287.9,314,255.9,314.1z"/>
	</g>
</g>
<g>
	<g>
		<path class="st0" d="M465.1,256c0.1-21.2,12.9-40.3,32.6-48.3L512,202l-4.2-15.7c-5.9-20.8-14.4-40.9-25.3-59.6l-7.7-13.4
			l-14.3,5.9c-26.7,11.1-57.3-1.6-68.3-28.3c-5.3-12.8-5.3-27.2,0-40l5.9-14.3l-12.9-7.1C366.5,18.5,346.5,10,325.6,4.1l-14.8-4
			l-5.9,14.3c-11,26.7-41.5,39.5-68.2,28.5c-12.9-5.3-23.2-15.6-28.5-28.5l-5.9-14.3l-16,4c-20.8,5.9-40.9,14.4-59.6,25.3L113.1,37
			l5.9,14.3c10.7,26.8-2.4,57.3-29.2,68c-12.6,5-26.6,5-39.2-0.2l-14.3-5.9l-7.1,13.4C18.4,145.4,9.9,165.4,4,186.3l-4,14.8
			l14.3,5.8c26.7,11,39.5,41.5,28.5,68.2c-5.3,12.9-15.6,23.2-28.5,28.5L0,309.3l4,14.8c5.8,21.4,14.3,42,25.3,61.2l7.7,13.4
			l14.3-5.9c26.7-11.1,57.3,1.6,68.3,28.3c5.3,12.8,5.3,27.2,0,40l-5.9,14.3l13.4,7.7c18.6,10.6,38.5,19,59.1,24.8l14.8,4l5.9-14.3
			c11-26.7,41.5-39.5,68.2-28.5c12.9,5.3,23.2,15.6,28.5,28.5l5.9,14.3l14.8-4c21.3-5.8,41.7-14.3,60.8-25.3l13.4-7.7l-5.9-14.3
			c-11.1-26.7,1.6-57.3,28.3-68.3c12.8-5.3,27.2-5.3,40,0l14.3,5.9l7.7-13.4c10.7-18.6,19-38.5,24.8-59.1l4-14.8l-14.3-5.8
			C477.6,297,464.8,277.5,465.1,256z M463.7,358c-48.1-10.3-95.5,20.3-105.8,68.4c-2.7,12.3-2.7,25.1,0,37.5
			c-8.8,4.3-17.9,8-27.2,11.2c-26.7-41.3-81.9-53.1-123.2-26.4c-10.6,6.8-19.6,15.8-26.4,26.4c-9.3-3.1-18.4-6.9-27.2-11.2
			c10.3-48.1-20.3-95.5-68.4-105.8c-12.3-2.7-25.1-2.7-37.5,0c-4.3-8.8-8-17.9-11.2-27.2c41.4-26.7,53.3-81.8,26.6-123.1
			C56.7,197,47.6,187.9,37,181c3.1-9.3,6.9-18.4,11.2-27.2c48.1,10.3,95.5-20.3,105.8-68.4c2.7-12.3,2.7-25.1,0-37.5
			c8.8-4.3,17.9-8,27.2-11.2C207.9,78.2,263,90,304.3,63.3c10.6-6.8,19.6-15.8,26.4-26.4c9.3,3.1,18.4,6.9,27.2,11.2
			c-10.3,48.1,20.3,95.5,68.4,105.8c12.3,2.7,25.1,2.7,37.5,0c4.3,8.8,8,17.9,11.2,27.2c-41.4,26.7-53.3,81.8-26.6,123.1
			c6.9,10.7,15.9,19.7,26.6,26.6C471.7,340.1,468,349.2,463.7,358z"/>
	</g>
</g>
</svg>
