<?xml version="1.0" encoding="utf-8"?>
<!-- Generator: Adobe Illustrator 22.1.0, SVG Export Plug-In . SVG Version: 6.00 Build 0)  -->
<svg version="1.1" id="Layer_1" xmlns="http://www.w3.org/2000/svg" xmlns:xlink="http://www.w3.org/1999/xlink" x="0px" y="0px"
	 viewBox="0 0 602.8 170.6" style="enable-background:new 0 0 602.8 170.6;" xml:space="preserve">
<style type="text/css">
	.st0{fill:#0FA3B1;}
	.st1{enable-background:new    ;}
	.st2{fill:#FFFFFF;}
	.st3{fill:none;}
</style>
<g>
	<path class="st0" d="M102.5,0H82.9H35.7C16,0,0,16,0,35.7v53.5v19.6v35.6v0.1v26.1l18.4-26.1h17.3h19.6h47.2
		c19.7,0,35.7-16,35.7-35.7V35.7V0H102.5z"/>
	<g>
		<g class="st1">
			<path class="st2" d="M179.4,133.7h-2.1v-8.6h-10.1v8.6h-2.1v-18.8h2.1v8.4h10.1v-8.4h2.1V133.7z"/>
			<path class="st2" d="M192.2,134c-1.6,0-3-0.4-4.3-1.2s-2.3-1.9-3-3.3c-0.7-1.4-1.1-3-1.1-4.7v-0.7c0-1.8,0.3-3.4,1-4.9
				c0.7-1.4,1.7-2.6,2.9-3.4c1.2-0.8,2.6-1.2,4.1-1.2c2.3,0,4.1,0.8,5.4,2.3c1.3,1.6,2,3.7,2,6.4v1.2h-13.4v0.4
				c0,2.1,0.6,3.9,1.8,5.3c1.2,1.4,2.8,2.1,4.6,2.1c1.1,0,2.1-0.2,2.9-0.6c0.8-0.4,1.6-1.1,2.3-1.9l1.3,1
				C197.3,132.9,195.1,134,192.2,134z M191.8,116.3c-1.6,0-2.9,0.6-3.9,1.7s-1.7,2.7-2,4.6h11.3v-0.2c-0.1-1.8-0.6-3.3-1.5-4.4
				C194.7,116.9,193.4,116.3,191.8,116.3z"/>
			<path class="st2" d="M202.9,131.9l0.9-1.2c1.5-2,2.3-4.9,2.5-8.7l0.3-7.1h11.1v17h1.9v7.3h-2.1v-5.5h-14.1v5.5h-2l0-7.3H202.9z
				 M205.3,131.9h10.4v-15.1h-7l-0.2,4.9C208.2,126.2,207.1,129.6,205.3,131.9z"/>
			<path class="st2" d="M223.9,133.7v-18.8h6.9c2.4,0,4.2,0.4,5.5,1.3c1.3,0.8,1.9,2.1,1.9,3.7c0,0.9-0.3,1.8-0.9,2.5
				s-1.4,1.3-2.5,1.6c1.2,0.2,2.2,0.8,3,1.6c0.7,0.8,1.1,1.8,1.1,2.9c0,1.7-0.6,2.9-1.8,3.8c-1.2,0.9-2.9,1.4-5.2,1.4H223.9z
				 M225.9,123.3h5.3c3.3,0,4.9-1.2,4.9-3.3c0-1.1-0.4-2-1.3-2.5c-0.9-0.5-2.2-0.8-4-0.8h-4.8V123.3z M225.9,125v6.9h6
				c1.6,0,2.8-0.3,3.6-0.9c0.8-0.6,1.3-1.5,1.3-2.6c0-1-0.4-1.9-1.3-2.5c-0.8-0.6-2-0.9-3.6-0.9H225.9z"/>
			<path class="st2" d="M255.8,114.9h2.1v18.8h-2.1v-15.4l-10.1,15.4h-2.1v-18.8h2.1v15.4L255.8,114.9z"/>
			<path class="st2" d="M277.8,125h-2.5v8.7h-2.1V125h-2.5l-6.9,8.7h-2.6l7.8-9.6l-6.9-9.1h2.5l6.2,8.2h2.5v-8.2h2.1v8.2h2.5
				l6.2-8.2h2.5l-6.9,9.1l7.8,9.6h-2.7L277.8,125z"/>
			<path class="st2" d="M303,114.9h2.1v18.8H303v-15.4l-10.1,15.4h-2.1v-18.8h2.1v15.4L303,114.9z"/>
			<path class="st2" d="M321.1,130.8l7.5-16h2.6v18.8H329v-15.4l-7.2,15.4h-1.5l-7.4-15.7v15.7h-2.1v-18.8h2.7L321.1,130.8z"/>
			<path class="st2" d="M335.5,124c0-1.8,0.3-3.4,1-4.9s1.7-2.6,3-3.4s2.7-1.2,4.3-1.2c2.5,0,4.5,0.9,6.1,2.6c1.5,1.8,2.3,4.1,2.3,7
				v0.4c0,1.8-0.3,3.4-1,4.9c-0.7,1.5-1.7,2.6-3,3.4s-2.7,1.2-4.4,1.2c-2.5,0-4.5-0.9-6.1-2.6c-1.6-1.8-2.3-4.1-2.3-7V124z
				 M337.6,124.6c0,2.2,0.6,4.1,1.7,5.5c1.2,1.4,2.7,2.2,4.6,2.2c1.9,0,3.4-0.7,4.6-2.2s1.7-3.3,1.7-5.7V124c0-1.4-0.3-2.7-0.8-3.9
				c-0.5-1.2-1.3-2.1-2.2-2.8c-1-0.7-2.1-1-3.3-1c-1.8,0-3.4,0.7-4.5,2.2s-1.8,3.3-1.8,5.7V124.6z"/>
			<path class="st2" d="M363.5,132.3c1.4,0,2.7-0.4,3.6-1.2c1-0.8,1.5-1.9,1.6-3.2h2c-0.1,1.1-0.4,2.2-1.1,3.1
				c-0.7,0.9-1.5,1.7-2.6,2.2c-1.1,0.5-2.3,0.8-3.5,0.8c-2.5,0-4.4-0.9-5.9-2.6s-2.2-4-2.2-6.9v-0.6c0-1.8,0.3-3.5,1-4.9
				c0.6-1.4,1.6-2.5,2.8-3.3c1.2-0.8,2.6-1.2,4.2-1.2c2.1,0,3.8,0.6,5.1,1.8c1.3,1.2,2,2.8,2.1,4.8h-2c-0.1-1.5-0.6-2.7-1.6-3.6
				c-1-0.9-2.2-1.4-3.7-1.4c-1.9,0-3.3,0.7-4.4,2c-1,1.4-1.6,3.2-1.6,5.7v0.6c0,2.4,0.5,4.3,1.6,5.6
				C360.1,131.6,361.6,132.3,363.5,132.3z"/>
			<path class="st2" d="M388.3,116.7h-6.8v17h-2.1v-17h-6.6v-1.8h15.5V116.7z"/>
			<path class="st2" d="M394,121.7h5.4c1.4,0,2.6,0.3,3.7,0.8c1,0.5,1.8,1.2,2.4,2.1c0.5,0.9,0.8,1.9,0.8,3.1c0,1.8-0.6,3.3-1.9,4.4
				c-1.2,1.1-2.9,1.6-5,1.6h-7.4v-18.8h2.1V121.7z M394,123.5v8.4h5.4c1.5,0,2.7-0.4,3.5-1.1c0.8-0.8,1.3-1.8,1.3-3.1
				c0-1.2-0.4-2.3-1.2-3c-0.8-0.8-2-1.2-3.4-1.2H394z"/>
		</g>
	</g>
	<g class="st1">
		<path class="st2" d="M192.5,72.8h-7.8v23.5h-16.4V24.8H197c13.6,0,24.5,10.9,24.5,24.5c0,8.8-5.3,16.8-13.2,20.7l15.2,26.3H206
			L192.5,72.8z M184.8,58.5H197c4.5,0,8.2-4,8.2-9.2c0-5.2-3.7-9.2-8.2-9.2h-12.3V58.5z"/>
	</g>
	<g class="st1">
		<path class="st2" d="M276.2,80.6v15.7h-45V24.8h44.5v15.7h-28.1v11.9h25.5v15.5h-25.5v12.7H276.2z"/>
	</g>
	<g class="st1">
		<path class="st2" d="M335.4,40.5H317v55.8h-16.4V40.5h-18.4V24.8h53.1V40.5z"/>
	</g>
	<g class="st1">
		<path class="st2" d="M384.5,85.1h-26.6l-3.6,11.2h-17.9l24.3-71.5h20.8L406,96.3h-17.9L384.5,85.1z M379.6,69.7l-8.4-26.3
			l-8.4,26.3H379.6z"/>
	</g>
	<g class="st1">
		<path class="st2" d="M430.5,24.8v71.5h-16.3V24.8H430.5z"/>
	</g>
	<g class="st1">
		<path class="st2" d="M484.5,80.6v15.7h-41.9V24.8H459v55.8H484.5z"/>
		<path class="st2" d="M536.6,80.6v15.7h-45V24.8h44.5v15.7H508v11.9h25.5v15.5H508v12.7H536.6z"/>
	</g>
	<g class="st1">
		<path class="st2" d="M571.7,72.8H564v23.5h-16.3V24.8h28.6c13.6,0,24.5,10.9,24.5,24.5c0,8.8-5.3,16.8-13.2,20.7l15.2,26.3h-17.6
			L571.7,72.8z M564,58.5h12.3c4.5,0,8.2-4,8.2-9.2c0-5.2-3.7-9.2-8.2-9.2H564V58.5z"/>
	</g>
</g>
<g transform="translate(80,80)">
	<g transform="translate(360,0) scale(0.4,0.4)">
		<g transform="">
			<rect x="-955.3" y="-126" class="st2" width="8.3" height="8.3"/>
		</g>
	</g>
	<g transform="translate(480,0) scale(0.4,0.4)">
		<g transform="">
			<rect x="-1230.5" y="-126" class="st2" width="8.3" height="8.3"/>
		</g>
	</g>
	<g transform="translate(520,0) scale(0.4,0.4)">
		<g transform="">
			<rect x="-1322.3" y="-126" class="st2" width="8.3" height="8.3"/>
		</g>
	</g>
	<g transform="translate(560,0) scale(0.4,0.4)">
		<g transform="">
			<rect x="-1414" y="-126" class="st2" width="8.3" height="8.3"/>
		</g>
	</g>
	<g transform="translate(320,40) scale(0.4,0.4)">
		<g transform="">
			<rect x="-863.5" y="-217.8" class="st2" width="8.3" height="8.3"/>
		</g>
	</g>
	<g transform="translate(360,40) scale(0.4,0.4)">
		<g transform="">
			<rect x="-955.3" y="-217.8" class="st2" width="8.3" height="8.3"/>
		</g>
	</g>
	<g transform="translate(400,40) scale(0.4,0.4)">
		<g transform="">
			<rect x="-1047" y="-217.8" class="st2" width="8.3" height="8.3"/>
		</g>
	</g>
	<g transform="translate(440,40) scale(0.4,0.4)">
		<g transform="">
			<rect x="-1138.8" y="-217.8" class="st2" width="8.3" height="8.3"/>
		</g>
	</g>
	<g transform="translate(480,40) scale(0.4,0.4)">
		<g transform="">
			<rect x="-1230.5" y="-217.8" class="st2" width="8.3" height="8.3"/>
		</g>
	</g>
	<g transform="translate(320,80) scale(0.4,0.4)">
		<g transform="">
			<rect x="-863.5" y="-309.5" class="st2" width="8.3" height="8.3"/>
		</g>
	</g>
	<g transform="translate(360,80) scale(0.4,0.4)">
		<g transform="">
			<rect x="-955.3" y="-309.5" class="st2" width="8.3" height="8.3"/>
		</g>
	</g>
	<g transform="translate(400,80) scale(0.4,0.4)">
		<g transform="">
			<rect x="-1047" y="-309.5" class="st2" width="8.3" height="8.3"/>
		</g>
	</g>
	<g transform="translate(440,80) scale(0.4,0.4)">
		<g transform="">
			<rect x="-1138.8" y="-309.5" class="st2" width="8.3" height="8.3"/>
		</g>
	</g>
	<g transform="translate(560,80) scale(0.4,0.4)">
		<g transform="">
			<rect x="-1414" y="-309.5" class="st2" width="8.3" height="8.3"/>
		</g>
	</g>
	<g transform="translate(600,80) scale(0.4,0.4)">
		<g transform="">
			<rect x="-1505.8" y="-309.5" class="st2" width="8.3" height="8.3"/>
		</g>
	</g>
	<g transform="translate(640,80) scale(0.4,0.4)">
		<g transform="">
			<rect x="-1597.5" y="-309.5" class="st2" width="8.3" height="8.3"/>
		</g>
	</g>
	<g transform="translate(320,120) scale(0.4,0.4)">
		<g transform="">
			<rect x="-863.5" y="-401.3" class="st2" width="8.3" height="8.3"/>
		</g>
	</g>
	<g transform="translate(440,120) scale(0.4,0.4)">
		<g transform="">
			<rect x="-1138.8" y="-401.3" class="st2" width="8.3" height="8.3"/>
		</g>
	</g>
	<g transform="translate(480,120) scale(0.4,0.4)">
		<g transform="">
			<rect x="-1230.5" y="-401.3" class="st2" width="8.3" height="8.3"/>
		</g>
	</g>
	<g transform="translate(520,120) scale(0.4,0.4)">
		<g transform="">
			<rect x="-1322.3" y="-401.3" class="st2" width="8.3" height="8.3"/>
		</g>
	</g>
	<g transform="translate(360,160) scale(0.4,0.4)">
		<g transform="">
			<rect x="-955.3" y="-493" class="st2" width="8.3" height="8.3"/>
		</g>
	</g>
	<g transform="translate(440,160) scale(0.4,0.4)">
		<g transform="">
			<rect x="-1138.8" y="-493" class="st2" width="8.3" height="8.3"/>
		</g>
	</g>
	<g transform="translate(480,160) scale(0.4,0.4)">
		<g transform="">
			<rect x="-1230.5" y="-493" class="st2" width="8.3" height="8.3"/>
		</g>
	</g>
	<g transform="translate(520,160) scale(0.4,0.4)">
		<g transform="">
			<rect x="-1322.3" y="-493" class="st2" width="8.3" height="8.3"/>
		</g>
	</g>
	<g transform="translate(640,160) scale(0.4,0.4)">
		<g transform="">
			<rect x="-1597.5" y="-493" class="st2" width="8.3" height="8.3"/>
		</g>
	</g>
	<g transform="translate(400,200) scale(0.4,0.4)">
		<g transform="">
			<rect x="-1047" y="-584.8" class="st2" width="8.3" height="8.3"/>
		</g>
	</g>
	<g transform="translate(440,200) scale(0.4,0.4)">
		<g transform="">
			<rect x="-1138.8" y="-584.8" class="st2" width="8.3" height="8.3"/>
		</g>
	</g>
	<g transform="translate(640,200) scale(0.4,0.4)">
		<g transform="">
			<rect x="-1597.5" y="-584.8" class="st2" width="8.3" height="8.3"/>
		</g>
	</g>
	<g transform="translate(320,240) scale(0.4,0.4)">
		<g transform="">
			<rect x="-863.5" y="-676.5" class="st2" width="8.3" height="8.3"/>
		</g>
	</g>
	<g transform="translate(400,240) scale(0.4,0.4)">
		<g transform="">
			<rect x="-1047" y="-676.5" class="st2" width="8.3" height="8.3"/>
		</g>
	</g>
	<g transform="translate(480,240) scale(0.4,0.4)">
		<g transform="">
			<rect x="-1230.5" y="-676.5" class="st2" width="8.3" height="8.3"/>
		</g>
	</g>
	<g transform="translate(560,240) scale(0.4,0.4)">
		<g transform="">
			<rect x="-1414" y="-676.5" class="st2" width="8.3" height="8.3"/>
		</g>
	</g>
	<g transform="translate(640,240) scale(0.4,0.4)">
		<g transform="">
			<rect x="-1597.5" y="-676.5" class="st2" width="8.3" height="8.3"/>
		</g>
	</g>
	<g transform="translate(320,280) scale(0.4,0.4)">
		<g transform="">
			<rect x="-863.5" y="-768.3" class="st2" width="8.3" height="8.3"/>
		</g>
	</g>
	<g transform="translate(400,280) scale(0.4,0.4)">
		<g transform="">
			<rect x="-1047" y="-768.3" class="st2" width="8.3" height="8.3"/>
		</g>
	</g>
	<g transform="translate(480,280) scale(0.4,0.4)">
		<g transform="">
			<rect x="-1230.5" y="-768.3" class="st2" width="8.3" height="8.3"/>
		</g>
	</g>
	<g transform="translate(560,280) scale(0.4,0.4)">
		<g transform="">
			<rect x="-1414" y="-768.3" class="st2" width="8.3" height="8.3"/>
		</g>
	</g>
	<g transform="translate(640,280) scale(0.4,0.4)">
		<g transform="">
			<rect x="-1597.5" y="-768.3" class="st2" width="8.3" height="8.3"/>
		</g>
	</g>
	<g transform="translate(0,320) scale(0.4,0.4)">
		<g transform="">
			<rect x="-129.6" y="-860" class="st2" width="8.3" height="8.3"/>
		</g>
	</g>
	<g transform="translate(240,320) scale(0.4,0.4)">
		<g transform="">
			<rect x="-680.1" y="-860" class="st2" width="8.3" height="8.3"/>
		</g>
	</g>
	<g transform="translate(320,320) scale(0.4,0.4)">
		<g transform="">
			<rect x="-863.5" y="-860" class="st2" width="8.3" height="8.3"/>
		</g>
	</g>
	<g transform="translate(440,320) scale(0.4,0.4)">
		<g transform="">
			<rect x="-1138.8" y="-860" class="st2" width="8.3" height="8.3"/>
		</g>
	</g>
	<g transform="translate(480,320) scale(0.4,0.4)">
		<g transform="">
			<rect x="-1230.5" y="-860" class="st2" width="8.3" height="8.3"/>
		</g>
	</g>
	<g transform="translate(520,320) scale(0.4,0.4)">
		<g transform="">
			<rect x="-1322.3" y="-860" class="st2" width="8.3" height="8.3"/>
		</g>
	</g>
	<g transform="translate(560,320) scale(0.4,0.4)">
		<g transform="">
			<rect x="-1414" y="-860" class="st2" width="8.3" height="8.3"/>
		</g>
	</g>
	<g transform="translate(600,320) scale(0.4,0.4)">
		<g transform="">
			<rect x="-1505.8" y="-860" class="st2" width="8.3" height="8.3"/>
		</g>
	</g>
	<g transform="translate(680,320) scale(0.4,0.4)">
		<g transform="">
			<rect x="-1689.2" y="-860" class="st2" width="8.3" height="8.3"/>
		</g>
	</g>
	<g transform="translate(720,320) scale(0.4,0.4)">
		<g transform="">
			<rect x="-1781" y="-860" class="st2" width="8.3" height="8.3"/>
		</g>
	</g>
	<g transform="translate(840,320) scale(0.4,0.4)">
		<g transform="">
			<rect x="-2056.2" y="-860" class="st2" width="8.3" height="8.3"/>
		</g>
	</g>
	<g transform="translate(880,320) scale(0.4,0.4)">
		<g transform="">
			<rect x="-2148" y="-860" class="st2" width="8.3" height="8.3"/>
		</g>
	</g>
	<g transform="translate(920,320) scale(0.4,0.4)">
		<g transform="">
			<rect x="-2239.7" y="-860" class="st2" width="8.3" height="8.3"/>
		</g>
	</g>
	<g transform="translate(0,360) scale(0.4,0.4)">
		<g transform="">
			<rect x="-129.6" y="-951.8" class="st2" width="8.3" height="8.3"/>
		</g>
	</g>
	<g transform="translate(40,360) scale(0.4,0.4)">
		<g transform="">
			<rect x="-221.3" y="-951.8" class="st2" width="8.3" height="8.3"/>
		</g>
	</g>
	<g transform="translate(80,360) scale(0.4,0.4)">
		<g transform="">
			<rect x="-313.1" y="-951.8" class="st2" width="8.3" height="8.3"/>
		</g>
	</g>
	<g transform="translate(160,360) scale(0.4,0.4)">
		<g transform="">
			<rect x="-496.6" y="-951.8" class="st2" width="8.3" height="8.3"/>
		</g>
	</g>
	<g transform="translate(200,360) scale(0.4,0.4)">
		<g transform="">
			<rect x="-588.3" y="-951.8" class="st2" width="8.3" height="8.3"/>
		</g>
	</g>
	<g transform="translate(360,360) scale(0.4,0.4)">
		<g transform="">
			<rect x="-955.3" y="-951.8" class="st2" width="8.3" height="8.3"/>
		</g>
	</g>
	<g transform="translate(480,360) scale(0.4,0.4)">
		<g transform="">
			<rect x="-1230.5" y="-951.8" class="st2" width="8.3" height="8.3"/>
		</g>
	</g>
	<g transform="translate(520,360) scale(0.4,0.4)">
		<g transform="">
			<rect x="-1322.3" y="-951.8" class="st2" width="8.3" height="8.3"/>
		</g>
	</g>
	<g transform="translate(560,360) scale(0.4,0.4)">
		<g transform="">
			<rect x="-1414" y="-951.8" class="st2" width="8.3" height="8.3"/>
		</g>
	</g>
	<g transform="translate(600,360) scale(0.4,0.4)">
		<g transform="">
			<rect x="-1505.8" y="-951.8" class="st2" width="8.3" height="8.3"/>
		</g>
	</g>
	<g transform="translate(760,360) scale(0.4,0.4)">
		<g transform="">
			<rect x="-1872.7" y="-951.8" class="st2" width="8.3" height="8.3"/>
		</g>
	</g>
	<g transform="translate(800,360) scale(0.4,0.4)">
		<g transform="">
			<rect x="-1964.5" y="-951.8" class="st2" width="8.3" height="8.3"/>
		</g>
	</g>
	<g transform="translate(840,360) scale(0.4,0.4)">
		<g transform="">
			<rect x="-2056.2" y="-951.8" class="st2" width="8.3" height="8.3"/>
		</g>
	</g>
	<g transform="translate(880,360) scale(0.4,0.4)">
		<g transform="">
			<rect x="-2148" y="-951.8" class="st2" width="8.3" height="8.3"/>
		</g>
	</g>
	<g transform="translate(920,360) scale(0.4,0.4)">
		<g transform="">
			<rect x="-2239.7" y="-951.8" class="st2" width="8.3" height="8.3"/>
		</g>
	</g>
	<g transform="translate(40,400) scale(0.4,0.4)">
		<g transform="">
			<rect x="-221.3" y="-1043.6" class="st2" width="8.3" height="8.3"/>
		</g>
	</g>
	<g transform="translate(80,400) scale(0.4,0.4)">
		<g transform="">
			<rect x="-313.1" y="-1043.6" class="st2" width="8.3" height="8.3"/>
		</g>
	</g>
	<g transform="translate(160,400) scale(0.4,0.4)">
		<g transform="">
			<rect x="-496.6" y="-1043.6" class="st2" width="8.3" height="8.3"/>
		</g>
	</g>
	<g transform="translate(200,400) scale(0.4,0.4)">
		<g transform="">
			<rect x="-588.3" y="-1043.6" class="st2" width="8.3" height="8.3"/>
		</g>
	</g>
	<g transform="translate(240,400) scale(0.4,0.4)">
		<g transform="">
			<rect x="-680.1" y="-1043.6" class="st2" width="8.3" height="8.3"/>
		</g>
	</g>
	<g transform="translate(320,400) scale(0.4,0.4)">
		<g transform="">
			<rect x="-863.5" y="-1043.6" class="st2" width="8.3" height="8.3"/>
		</g>
	</g>
	<g transform="translate(360,400) scale(0.4,0.4)">
		<g transform="">
			<rect x="-955.3" y="-1043.6" class="st2" width="8.3" height="8.3"/>
		</g>
	</g>
	<g transform="translate(440,400) scale(0.4,0.4)">
		<g transform="">
			<rect x="-1138.8" y="-1043.6" class="st2" width="8.3" height="8.3"/>
		</g>
	</g>
	<g transform="translate(480,400) scale(0.4,0.4)">
		<g transform="">
			<rect x="-1230.5" y="-1043.6" class="st2" width="8.3" height="8.3"/>
		</g>
	</g>
	<g transform="translate(560,400) scale(0.4,0.4)">
		<g transform="">
			<rect x="-1414" y="-1043.6" class="st2" width="8.3" height="8.3"/>
		</g>
	</g>
	<g transform="translate(600,400) scale(0.4,0.4)">
		<g transform="">
			<rect x="-1505.8" y="-1043.6" class="st2" width="8.3" height="8.3"/>
		</g>
	</g>
	<g transform="translate(680,400) scale(0.4,0.4)">
		<g transform="">
			<rect x="-1689.2" y="-1043.6" class="st2" width="8.3" height="8.3"/>
		</g>
	</g>
	<g transform="translate(760,400) scale(0.4,0.4)">
		<g transform="">
			<rect x="-1872.7" y="-1043.6" class="st2" width="8.3" height="8.3"/>
		</g>
	</g>
	<g transform="translate(840,400) scale(0.4,0.4)">
		<g transform="">
			<rect x="-2056.2" y="-1043.6" class="st2" width="8.3" height="8.3"/>
		</g>
	</g>
	<g transform="translate(920,400) scale(0.4,0.4)">
		<g transform="">
			<rect x="-2239.7" y="-1043.6" class="st2" width="8.3" height="8.3"/>
		</g>
	</g>
	<g transform="translate(960,400) scale(0.4,0.4)">
		<g transform="">
			<rect x="-2331.5" y="-1043.6" class="st2" width="8.3" height="8.3"/>
		</g>
	</g>
	<g transform="translate(160,440) scale(0.4,0.4)">
		<g transform="">
			<rect x="-496.6" y="-1135.2" class="st2" width="8.3" height="8.3"/>
		</g>
	</g>
	<g transform="translate(320,440) scale(0.4,0.4)">
		<g transform="">
			<rect x="-863.5" y="-1135.2" class="st2" width="8.3" height="8.3"/>
		</g>
	</g>
	<g transform="translate(360,440) scale(0.4,0.4)">
		<g transform="">
			<rect x="-955.3" y="-1135.2" class="st2" width="8.3" height="8.3"/>
		</g>
	</g>
	<g transform="translate(400,440) scale(0.4,0.4)">
		<g transform="">
			<rect x="-1047" y="-1135.2" class="st2" width="8.3" height="8.3"/>
		</g>
	</g>
	<g transform="translate(480,440) scale(0.4,0.4)">
		<g transform="">
			<rect x="-1230.5" y="-1135.2" class="st2" width="8.3" height="8.3"/>
		</g>
	</g>
	<g transform="translate(600,440) scale(0.4,0.4)">
		<g transform="">
			<rect x="-1505.8" y="-1135.2" class="st2" width="8.3" height="8.3"/>
		</g>
	</g>
	<g transform="translate(760,440) scale(0.4,0.4)">
		<g transform="">
			<rect x="-1872.7" y="-1135.2" class="st2" width="8.3" height="8.3"/>
		</g>
	</g>
	<g transform="translate(840,440) scale(0.4,0.4)">
		<g transform="">
			<rect x="-2056.2" y="-1135.2" class="st2" width="8.3" height="8.3"/>
		</g>
	</g>
	<g transform="translate(960,440) scale(0.4,0.4)">
		<g transform="">
			<rect x="-2331.5" y="-1135.2" class="st2" width="8.3" height="8.3"/>
		</g>
	</g>
	<g transform="translate(0,480) scale(0.4,0.4)">
		<g transform="">
			<rect x="-129.6" y="-1227.1" class="st2" width="8.3" height="8.3"/>
		</g>
	</g>
	<g transform="translate(40,480) scale(0.4,0.4)">
		<g transform="">
			<rect x="-221.3" y="-1227.1" class="st2" width="8.3" height="8.3"/>
		</g>
	</g>
	<g transform="translate(80,480) scale(0.4,0.4)">
		<g transform="">
			<rect x="-313.1" y="-1227.1" class="st2" width="8.3" height="8.3"/>
		</g>
	</g>
	<g transform="translate(120,480) scale(0.4,0.4)">
		<g transform="">
			<rect x="-404.8" y="-1227.1" class="st2" width="8.3" height="8.3"/>
		</g>
	</g>
	<g transform="translate(240,480) scale(0.4,0.4)">
		<g transform="">
			<rect x="-680.1" y="-1227.1" class="st2" width="8.3" height="8.3"/>
		</g>
	</g>
	<g transform="translate(280,480) scale(0.4,0.4)">
		<g transform="">
			<rect x="-771.8" y="-1227.1" class="st2" width="8.3" height="8.3"/>
		</g>
	</g>
	<g transform="translate(320,480) scale(0.4,0.4)">
		<g transform="">
			<rect x="-863.5" y="-1227.1" class="st2" width="8.3" height="8.3"/>
		</g>
	</g>
	<g transform="translate(400,480) scale(0.4,0.4)">
		<g transform="">
			<rect x="-1047" y="-1227.1" class="st2" width="8.3" height="8.3"/>
		</g>
	</g>
	<g transform="translate(480,480) scale(0.4,0.4)">
		<g transform="">
			<rect x="-1230.5" y="-1227.1" class="st2" width="8.3" height="8.3"/>
		</g>
	</g>
	<g transform="translate(600,480) scale(0.4,0.4)">
		<g transform="">
			<rect x="-1505.8" y="-1227.1" class="st2" width="8.3" height="8.3"/>
		</g>
	</g>
	<g transform="translate(720,480) scale(0.4,0.4)">
		<g transform="">
			<rect x="-1781" y="-1227.1" class="st2" width="8.3" height="8.3"/>
		</g>
	</g>
	<g transform="translate(760,480) scale(0.4,0.4)">
		<g transform="">
			<rect x="-1872.7" y="-1227.1" class="st2" width="8.3" height="8.3"/>
		</g>
	</g>
	<g transform="translate(960,480) scale(0.4,0.4)">
		<g transform="">
			<rect x="-2331.5" y="-1227.1" class="st2" width="8.3" height="8.3"/>
		</g>
	</g>
	<g transform="translate(0,520) scale(0.4,0.4)">
		<g transform="">
			<rect x="-129.6" y="-1318.8" class="st2" width="8.3" height="8.3"/>
		</g>
	</g>
	<g transform="translate(80,520) scale(0.4,0.4)">
		<g transform="">
			<rect x="-313.1" y="-1318.8" class="st2" width="8.3" height="8.3"/>
		</g>
	</g>
	<g transform="translate(160,520) scale(0.4,0.4)">
		<g transform="">
			<rect x="-496.6" y="-1318.8" class="st2" width="8.3" height="8.3"/>
		</g>
	</g>
	<g transform="translate(480,520) scale(0.4,0.4)">
		<g transform="">
			<rect x="-1230.5" y="-1318.8" class="st2" width="8.3" height="8.3"/>
		</g>
	</g>
	<g transform="translate(600,520) scale(0.4,0.4)">
		<g transform="">
			<rect x="-1505.8" y="-1318.8" class="st2" width="8.3" height="8.3"/>
		</g>
	</g>
	<g transform="translate(640,520) scale(0.4,0.4)">
		<g transform="">
			<rect x="-1597.5" y="-1318.8" class="st2" width="8.3" height="8.3"/>
		</g>
	</g>
	<g transform="translate(680,520) scale(0.4,0.4)">
		<g transform="">
			<rect x="-1689.2" y="-1318.8" class="st2" width="8.3" height="8.3"/>
		</g>
	</g>
	<g transform="translate(760,520) scale(0.4,0.4)">
		<g transform="">
			<rect x="-1872.7" y="-1318.8" class="st2" width="8.3" height="8.3"/>
		</g>
	</g>
	<g transform="translate(920,520) scale(0.4,0.4)">
		<g transform="">
			<rect x="-2239.7" y="-1318.8" class="st2" width="8.3" height="8.3"/>
		</g>
	</g>
	<g transform="translate(0,560) scale(0.4,0.4)">
		<g transform="">
			<rect x="-129.6" y="-1410.6" class="st2" width="8.3" height="8.3"/>
		</g>
	</g>
	<g transform="translate(120,560) scale(0.4,0.4)">
		<g transform="">
			<rect x="-404.8" y="-1410.6" class="st2" width="8.3" height="8.3"/>
		</g>
	</g>
	<g transform="translate(240,560) scale(0.4,0.4)">
		<g transform="">
			<rect x="-680.1" y="-1410.6" class="st2" width="8.3" height="8.3"/>
		</g>
	</g>
	<g transform="translate(320,560) scale(0.4,0.4)">
		<g transform="">
			<rect x="-863.5" y="-1410.6" class="st2" width="8.3" height="8.3"/>
		</g>
	</g>
	<g transform="translate(360,560) scale(0.4,0.4)">
		<g transform="">
			<rect x="-955.3" y="-1410.6" class="st2" width="8.3" height="8.3"/>
		</g>
	</g>
	<g transform="translate(560,560) scale(0.4,0.4)">
		<g transform="">
			<rect x="-1414" y="-1410.6" class="st2" width="8.3" height="8.3"/>
		</g>
	</g>
	<g transform="translate(600,560) scale(0.4,0.4)">
		<g transform="">
			<rect x="-1505.8" y="-1410.6" class="st2" width="8.3" height="8.3"/>
		</g>
	</g>
	<g transform="translate(680,560) scale(0.4,0.4)">
		<g transform="">
			<rect x="-1689.2" y="-1410.6" class="st2" width="8.3" height="8.3"/>
		</g>
	</g>
	<g transform="translate(720,560) scale(0.4,0.4)">
		<g transform="">
			<rect x="-1781" y="-1410.6" class="st2" width="8.3" height="8.3"/>
		</g>
	</g>
	<g transform="translate(760,560) scale(0.4,0.4)">
		<g transform="">
			<rect x="-1872.7" y="-1410.6" class="st2" width="8.3" height="8.3"/>
		</g>
	</g>
	<g transform="translate(800,560) scale(0.4,0.4)">
		<g transform="">
			<rect x="-1964.5" y="-1410.6" class="st2" width="8.3" height="8.3"/>
		</g>
	</g>
	<g transform="translate(840,560) scale(0.4,0.4)">
		<g transform="">
			<rect x="-2056.2" y="-1410.6" class="st2" width="8.3" height="8.3"/>
		</g>
	</g>
	<g transform="translate(920,560) scale(0.4,0.4)">
		<g transform="">
			<rect x="-2239.7" y="-1410.6" class="st2" width="8.3" height="8.3"/>
		</g>
	</g>
	<g transform="translate(960,560) scale(0.4,0.4)">
		<g transform="">
			<rect x="-2331.5" y="-1410.6" class="st2" width="8.3" height="8.3"/>
		</g>
	</g>
	<g transform="translate(0,600) scale(0.4,0.4)">
		<g transform="">
			<rect x="-129.6" y="-1502.2" class="st2" width="8.3" height="8.3"/>
		</g>
	</g>
	<g transform="translate(80,600) scale(0.4,0.4)">
		<g transform="">
			<rect x="-313.1" y="-1502.2" class="st2" width="8.3" height="8.3"/>
		</g>
	</g>
	<g transform="translate(120,600) scale(0.4,0.4)">
		<g transform="">
			<rect x="-404.8" y="-1502.2" class="st2" width="8.3" height="8.3"/>
		</g>
	</g>
	<g transform="translate(160,600) scale(0.4,0.4)">
		<g transform="">
			<rect x="-496.6" y="-1502.2" class="st2" width="8.3" height="8.3"/>
		</g>
	</g>
	<g transform="translate(280,600) scale(0.4,0.4)">
		<g transform="">
			<rect x="-771.8" y="-1502.2" class="st2" width="8.3" height="8.3"/>
		</g>
	</g>
	<g transform="translate(360,600) scale(0.4,0.4)">
		<g transform="">
			<rect x="-955.3" y="-1502.2" class="st2" width="8.3" height="8.3"/>
		</g>
	</g>
	<g transform="translate(440,600) scale(0.4,0.4)">
		<g transform="">
			<rect x="-1138.8" y="-1502.2" class="st2" width="8.3" height="8.3"/>
		</g>
	</g>
	<g transform="translate(600,600) scale(0.4,0.4)">
		<g transform="">
			<rect x="-1505.8" y="-1502.2" class="st2" width="8.3" height="8.3"/>
		</g>
	</g>
	<g transform="translate(720,600) scale(0.4,0.4)">
		<g transform="">
			<rect x="-1781" y="-1502.2" class="st2" width="8.3" height="8.3"/>
		</g>
	</g>
	<g transform="translate(800,600) scale(0.4,0.4)">
		<g transform="">
			<rect x="-1964.5" y="-1502.2" class="st2" width="8.3" height="8.3"/>
		</g>
	</g>
	<g transform="translate(880,600) scale(0.4,0.4)">
		<g transform="">
			<rect x="-2148" y="-1502.2" class="st2" width="8.3" height="8.3"/>
		</g>
	</g>
	<g transform="translate(960,600) scale(0.4,0.4)">
		<g transform="">
			<rect x="-2331.5" y="-1502.2" class="st2" width="8.3" height="8.3"/>
		</g>
	</g>
	<g transform="translate(0,640) scale(0.4,0.4)">
		<g transform="">
			<rect x="-129.6" y="-1594.1" class="st2" width="8.3" height="8.3"/>
		</g>
	</g>
	<g transform="translate(120,640) scale(0.4,0.4)">
		<g transform="">
			<rect x="-404.8" y="-1594.1" class="st2" width="8.3" height="8.3"/>
		</g>
	</g>
	<g transform="translate(160,640) scale(0.4,0.4)">
		<g transform="">
			<rect x="-496.6" y="-1594.1" class="st2" width="8.3" height="8.3"/>
		</g>
	</g>
	<g transform="translate(200,640) scale(0.4,0.4)">
		<g transform="">
			<rect x="-588.3" y="-1594.1" class="st2" width="8.3" height="8.3"/>
		</g>
	</g>
	<g transform="translate(240,640) scale(0.4,0.4)">
		<g transform="">
			<rect x="-680.1" y="-1594.1" class="st2" width="8.3" height="8.3"/>
		</g>
	</g>
	<g transform="translate(280,640) scale(0.4,0.4)">
		<g transform="">
			<rect x="-771.8" y="-1594.1" class="st2" width="8.3" height="8.3"/>
		</g>
	</g>
	<g transform="translate(400,640) scale(0.4,0.4)">
		<g transform="">
			<rect x="-1047" y="-1594.1" class="st2" width="8.3" height="8.3"/>
		</g>
	</g>
	<g transform="translate(440,640) scale(0.4,0.4)">
		<g transform="">
			<rect x="-1138.8" y="-1594.1" class="st2" width="8.3" height="8.3"/>
		</g>
	</g>
	<g transform="translate(480,640) scale(0.4,0.4)">
		<g transform="">
			<rect x="-1230.5" y="-1594.1" class="st2" width="8.3" height="8.3"/>
		</g>
	</g>
	<g transform="translate(520,640) scale(0.4,0.4)">
		<g transform="">
			<rect x="-1322.3" y="-1594.1" class="st2" width="8.3" height="8.3"/>
		</g>
	</g>
	<g transform="translate(560,640) scale(0.4,0.4)">
		<g transform="">
			<rect x="-1414" y="-1594.1" class="st2" width="8.3" height="8.3"/>
		</g>
	</g>
	<g transform="translate(640,640) scale(0.4,0.4)">
		<g transform="">
			<rect x="-1597.5" y="-1594.1" class="st2" width="8.3" height="8.3"/>
		</g>
	</g>
	<g transform="translate(680,640) scale(0.4,0.4)">
		<g transform="">
			<rect x="-1689.2" y="-1594.1" class="st2" width="8.3" height="8.3"/>
		</g>
	</g>
	<g transform="translate(720,640) scale(0.4,0.4)">
		<g transform="">
			<rect x="-1781" y="-1594.1" class="st2" width="8.3" height="8.3"/>
		</g>
	</g>
	<g transform="translate(760,640) scale(0.4,0.4)">
		<g transform="">
			<rect x="-1872.7" y="-1594.1" class="st2" width="8.3" height="8.3"/>
		</g>
	</g>
	<g transform="translate(800,640) scale(0.4,0.4)">
		<g transform="">
			<rect x="-1964.5" y="-1594.1" class="st2" width="8.3" height="8.3"/>
		</g>
	</g>
	<g transform="translate(880,640) scale(0.4,0.4)">
		<g transform="">
			<rect x="-2148" y="-1594.1" class="st2" width="8.3" height="8.3"/>
		</g>
	</g>
	<g transform="translate(320,680) scale(0.4,0.4)">
		<g transform="">
			<rect x="-863.5" y="-1685.8" class="st2" width="8.3" height="8.3"/>
		</g>
	</g>
	<g transform="translate(360,680) scale(0.4,0.4)">
		<g transform="">
			<rect x="-955.3" y="-1685.8" class="st2" width="8.3" height="8.3"/>
		</g>
	</g>
	<g transform="translate(440,680) scale(0.4,0.4)">
		<g transform="">
			<rect x="-1138.8" y="-1685.8" class="st2" width="8.3" height="8.3"/>
		</g>
	</g>
	<g transform="translate(480,680) scale(0.4,0.4)">
		<g transform="">
			<rect x="-1230.5" y="-1685.8" class="st2" width="8.3" height="8.3"/>
		</g>
	</g>
	<g transform="translate(560,680) scale(0.4,0.4)">
		<g transform="">
			<rect x="-1414" y="-1685.8" class="st2" width="8.3" height="8.3"/>
		</g>
	</g>
	<g transform="translate(640,680) scale(0.4,0.4)">
		<g transform="">
			<rect x="-1597.5" y="-1685.8" class="st2" width="8.3" height="8.3"/>
		</g>
	</g>
	<g transform="translate(800,680) scale(0.4,0.4)">
		<g transform="">
			<rect x="-1964.5" y="-1685.8" class="st2" width="8.3" height="8.3"/>
		</g>
	</g>
	<g transform="translate(880,680) scale(0.4,0.4)">
		<g transform="">
			<rect x="-2148" y="-1685.8" class="st2" width="8.3" height="8.3"/>
		</g>
	</g>
	<g transform="translate(400,720) scale(0.4,0.4)">
		<g transform="">
			<rect x="-1047" y="-1777.6" class="st2" width="8.3" height="8.3"/>
		</g>
	</g>
	<g transform="translate(440,720) scale(0.4,0.4)">
		<g transform="">
			<rect x="-1138.8" y="-1777.6" class="st2" width="8.3" height="8.3"/>
		</g>
	</g>
	<g transform="translate(560,720) scale(0.4,0.4)">
		<g transform="">
			<rect x="-1414" y="-1777.6" class="st2" width="8.3" height="8.3"/>
		</g>
	</g>
	<g transform="translate(640,720) scale(0.4,0.4)">
		<g transform="">
			<rect x="-1597.5" y="-1777.6" class="st2" width="8.3" height="8.3"/>
		</g>
	</g>
	<g transform="translate(720,720) scale(0.4,0.4)">
		<g transform="">
			<rect x="-1781" y="-1777.6" class="st2" width="8.3" height="8.3"/>
		</g>
	</g>
	<g transform="translate(800,720) scale(0.4,0.4)">
		<g transform="">
			<rect x="-1964.5" y="-1777.6" class="st2" width="8.3" height="8.3"/>
		</g>
	</g>
	<g transform="translate(840,720) scale(0.4,0.4)">
		<g transform="">
			<rect x="-2056.2" y="-1777.6" class="st2" width="8.3" height="8.3"/>
		</g>
	</g>
	<g transform="translate(960,720) scale(0.4,0.4)">
		<g transform="">
			<rect x="-2331.5" y="-1777.6" class="st2" width="8.3" height="8.3"/>
		</g>
	</g>
	<g transform="translate(360,760) scale(0.4,0.4)">
		<g transform="">
			<rect x="-955.3" y="-1869.2" class="st2" width="8.3" height="8.3"/>
		</g>
	</g>
	<g transform="translate(400,760) scale(0.4,0.4)">
		<g transform="">
			<rect x="-1047" y="-1869.2" class="st2" width="8.3" height="8.3"/>
		</g>
	</g>
	<g transform="translate(640,760) scale(0.4,0.4)">
		<g transform="">
			<rect x="-1597.5" y="-1869.2" class="st2" width="8.3" height="8.3"/>
		</g>
	</g>
	<g transform="translate(800,760) scale(0.4,0.4)">
		<g transform="">
			<rect x="-1964.5" y="-1869.2" class="st2" width="8.3" height="8.3"/>
		</g>
	</g>
	<g transform="translate(400,800) scale(0.4,0.4)">
		<g transform="">
			<rect x="-1047" y="-1961" class="st2" width="8.3" height="8.3"/>
		</g>
	</g>
	<g transform="translate(520,800) scale(0.4,0.4)">
		<g transform="">
			<rect x="-1322.3" y="-1961" class="st2" width="8.3" height="8.3"/>
		</g>
	</g>
	<g transform="translate(600,800) scale(0.4,0.4)">
		<g transform="">
			<rect x="-1505.8" y="-1961" class="st2" width="8.3" height="8.3"/>
		</g>
	</g>
	<g transform="translate(640,800) scale(0.4,0.4)">
		<g transform="">
			<rect x="-1597.5" y="-1961" class="st2" width="8.3" height="8.3"/>
		</g>
	</g>
	<g transform="translate(680,800) scale(0.4,0.4)">
		<g transform="">
			<rect x="-1689.2" y="-1961" class="st2" width="8.3" height="8.3"/>
		</g>
	</g>
	<g transform="translate(720,800) scale(0.4,0.4)">
		<g transform="">
			<rect x="-1781" y="-1961" class="st2" width="8.3" height="8.3"/>
		</g>
	</g>
	<g transform="translate(760,800) scale(0.4,0.4)">
		<g transform="">
			<rect x="-1872.7" y="-1961" class="st2" width="8.3" height="8.3"/>
		</g>
	</g>
	<g transform="translate(800,800) scale(0.4,0.4)">
		<g transform="">
			<rect x="-1964.5" y="-1961" class="st2" width="8.3" height="8.3"/>
		</g>
	</g>
	<g transform="translate(840,800) scale(0.4,0.4)">
		<g transform="">
			<rect x="-2056.2" y="-1961" class="st2" width="8.3" height="8.3"/>
		</g>
	</g>
	<g transform="translate(880,800) scale(0.4,0.4)">
		<g transform="">
			<rect x="-2148" y="-1961" class="st2" width="8.3" height="8.3"/>
		</g>
	</g>
	<g transform="translate(400,840) scale(0.4,0.4)">
		<g transform="">
			<rect x="-1047" y="-2052.8" class="st2" width="8.3" height="8.3"/>
		</g>
	</g>
	<g transform="translate(440,840) scale(0.4,0.4)">
		<g transform="">
			<rect x="-1138.8" y="-2052.8" class="st2" width="8.3" height="8.3"/>
		</g>
	</g>
	<g transform="translate(520,840) scale(0.4,0.4)">
		<g transform="">
			<rect x="-1322.3" y="-2052.8" class="st2" width="8.3" height="8.3"/>
		</g>
	</g>
	<g transform="translate(560,840) scale(0.4,0.4)">
		<g transform="">
			<rect x="-1414" y="-2052.8" class="st2" width="8.3" height="8.3"/>
		</g>
	</g>
	<g transform="translate(680,840) scale(0.4,0.4)">
		<g transform="">
			<rect x="-1689.2" y="-2052.8" class="st2" width="8.3" height="8.3"/>
		</g>
	</g>
	<g transform="translate(720,840) scale(0.4,0.4)">
		<g transform="">
			<rect x="-1781" y="-2052.8" class="st2" width="8.3" height="8.3"/>
		</g>
	</g>
	<g transform="translate(840,840) scale(0.4,0.4)">
		<g transform="">
			<rect x="-2056.2" y="-2052.8" class="st2" width="8.3" height="8.3"/>
		</g>
	</g>
	<g transform="translate(920,840) scale(0.4,0.4)">
		<g transform="">
			<rect x="-2239.7" y="-2052.8" class="st2" width="8.3" height="8.3"/>
		</g>
	</g>
	<g transform="translate(960,840) scale(0.4,0.4)">
		<g transform="">
			<rect x="-2331.5" y="-2052.8" class="st2" width="8.3" height="8.3"/>
		</g>
	</g>
	<g transform="translate(400,880) scale(0.4,0.4)">
		<g transform="">
			<rect x="-1047" y="-2144.4" class="st2" width="8.3" height="8.3"/>
		</g>
	</g>
	<g transform="translate(480,880) scale(0.4,0.4)">
		<g transform="">
			<rect x="-1230.5" y="-2144.4" class="st2" width="8.3" height="8.3"/>
		</g>
	</g>
	<g transform="translate(520,880) scale(0.4,0.4)">
		<g transform="">
			<rect x="-1322.3" y="-2144.4" class="st2" width="8.3" height="8.3"/>
		</g>
	</g>
	<g transform="translate(560,880) scale(0.4,0.4)">
		<g transform="">
			<rect x="-1414" y="-2144.4" class="st2" width="8.3" height="8.3"/>
		</g>
	</g>
	<g transform="translate(600,880) scale(0.4,0.4)">
		<g transform="">
			<rect x="-1505.8" y="-2144.4" class="st2" width="8.3" height="8.3"/>
		</g>
	</g>
	<g transform="translate(760,880) scale(0.4,0.4)">
		<g transform="">
			<rect x="-1872.7" y="-2144.4" class="st2" width="8.3" height="8.3"/>
		</g>
	</g>
	<g transform="translate(880,880) scale(0.4,0.4)">
		<g transform="">
			<rect x="-2148" y="-2144.4" class="st2" width="8.3" height="8.3"/>
		</g>
	</g>
	<g transform="translate(960,880) scale(0.4,0.4)">
		<g transform="">
			<rect x="-2331.5" y="-2144.4" class="st2" width="8.3" height="8.3"/>
		</g>
	</g>
	<g transform="translate(360,920) scale(0.4,0.4)">
		<g transform="">
			<rect x="-955.3" y="-2236.2" class="st2" width="8.3" height="8.3"/>
		</g>
	</g>
	<g transform="translate(440,920) scale(0.4,0.4)">
		<g transform="">
			<rect x="-1138.8" y="-2236.2" class="st2" width="8.3" height="8.3"/>
		</g>
	</g>
	<g transform="translate(480,920) scale(0.4,0.4)">
		<g transform="">
			<rect x="-1230.5" y="-2236.2" class="st2" width="8.3" height="8.3"/>
		</g>
	</g>
	<g transform="translate(600,920) scale(0.4,0.4)">
		<g transform="">
			<rect x="-1505.8" y="-2236.2" class="st2" width="8.3" height="8.3"/>
		</g>
	</g>
	<g transform="translate(640,920) scale(0.4,0.4)">
		<g transform="">
			<rect x="-1597.5" y="-2236.2" class="st2" width="8.3" height="8.3"/>
		</g>
	</g>
	<g transform="translate(680,920) scale(0.4,0.4)">
		<g transform="">
			<rect x="-1689.2" y="-2236.2" class="st2" width="8.3" height="8.3"/>
		</g>
	</g>
	<g transform="translate(720,920) scale(0.4,0.4)">
		<g transform="">
			<rect x="-1781" y="-2236.2" class="st2" width="8.3" height="8.3"/>
		</g>
	</g>
	<g transform="translate(760,920) scale(0.4,0.4)">
		<g transform="">
			<rect x="-1872.7" y="-2236.2" class="st2" width="8.3" height="8.3"/>
		</g>
	</g>
	<g transform="translate(800,920) scale(0.4,0.4)">
		<g transform="">
			<rect x="-1964.5" y="-2236.2" class="st2" width="8.3" height="8.3"/>
		</g>
	</g>
	<g transform="translate(960,920) scale(0.4,0.4)">
		<g transform="">
			<rect x="-2331.5" y="-2236.2" class="st2" width="8.3" height="8.3"/>
		</g>
	</g>
	<g transform="translate(320,960) scale(0.4,0.4)">
		<g transform="">
			<rect x="-863.5" y="-2327.9" class="st2" width="8.3" height="8.3"/>
		</g>
	</g>
	<g transform="translate(400,960) scale(0.4,0.4)">
		<g transform="">
			<rect x="-1047" y="-2327.9" class="st2" width="8.3" height="8.3"/>
		</g>
	</g>
	<g transform="translate(440,960) scale(0.4,0.4)">
		<g transform="">
			<rect x="-1138.8" y="-2327.9" class="st2" width="8.3" height="8.3"/>
		</g>
	</g>
	<g transform="translate(640,960) scale(0.4,0.4)">
		<g transform="">
			<rect x="-1597.5" y="-2327.9" class="st2" width="8.3" height="8.3"/>
		</g>
	</g>
	<g transform="translate(720,960) scale(0.4,0.4)">
		<g transform="">
			<rect x="-1781" y="-2327.9" class="st2" width="8.3" height="8.3"/>
		</g>
	</g>
	<g transform="translate(840,960) scale(0.4,0.4)">
		<g transform="">
			<rect x="-2056.2" y="-2327.9" class="st2" width="8.3" height="8.3"/>
		</g>
	</g>
	<g transform="translate(960,960) scale(0.4,0.4)">
		<g transform="">
			<rect x="-2331.5" y="-2327.9" class="st2" width="8.3" height="8.3"/>
		</g>
	</g>
	<g transform="translate(0,0) scale(2.8, 2.8)">
		<g transform="">
			<g>
				<rect x="-17.2" y="-16.7" class="st3" width="5.8" height="5.8"/>
				<path class="st2" d="M-11.5-18h-5.8h-1.2v1.2v5.8v1.2h1.2h5.8h1.2V-11v-5.8V-18H-11.5z M-11.5-11h-5.8v-5.8h5.8V-11z"/>
			</g>
		</g>
	</g>
	<g transform="translate(720,0) scale(2.8, 2.8)">
		<g transform="">
			<g>
				<rect x="-253.1" y="-16.7" class="st3" width="5.8" height="5.8"/>
				<path class="st2" d="M-247.4-18h-5.8h-1.2v1.2v5.8v1.2h1.2h5.8h1.2V-11v-5.8V-18H-247.4z M-247.4-11h-5.8v-5.8h5.8V-11z"/>
			</g>
		</g>
	</g>
	<g transform="translate(0,720) scale(2.8, 2.8)">
		<g transform="">
			<g>
				<rect x="-17.2" y="-252.7" class="st3" width="5.8" height="5.8"/>
				<path class="st2" d="M-11.5-253.9h-5.8h-1.2v1.2v5.8v1.2h1.2h5.8h1.2v-1.2v-5.8v-1.2H-11.5z M-11.5-246.9h-5.8v-5.8h5.8V-246.9z
					"/>
			</g>
		</g>
	</g>
	<g transform="translate(80,80) scale(1.2, 1.2)">
		<g transform="">
			<rect x="-104.3" y="-103.1" class="st2" width="8.3" height="8.3"/>
		</g>
	</g>
	<g transform="translate(800,80) scale(1.2, 1.2)">
		<g transform="">
			<rect x="-654.8" y="-103.1" class="st2" width="8.3" height="8.3"/>
		</g>
	</g>
	<g transform="translate(80,800) scale(1.2, 1.2)">
		<g transform="">
			<rect x="-104.3" y="-653.7" class="st2" width="8.3" height="8.3"/>
		</g>
	</g>
</g>
</svg>
