<?xml version="1.0" encoding="utf-8"?>
<!-- Generator: Adobe Illustrator 23.0.1, SVG Export Plug-In . SVG Version: 6.00 Build 0)  -->
<svg version="1.1" id="Layer_1" xmlns="http://www.w3.org/2000/svg" xmlns:xlink="http://www.w3.org/1999/xlink" x="0px" y="0px"
	 viewBox="0 0 512 512" style="enable-background:new 0 0 512 512;" xml:space="preserve">
<style type="text/css">
	.st0{fill:#434A53;}
</style>
<path class="st0" d="M131.2,216.8c2.6,0,5.2-1.1,7.1-2.9c1.9-1.9,2.9-4.4,2.9-7.1c0-2.6-1.1-5.2-2.9-7.1s-4.4-2.9-7.1-2.9
	c-2.6,0-5.2,1.1-7.1,2.9c-1.9,1.9-2.9,4.4-2.9,7.1c0,2.6,1.1,5.2,2.9,7.1C126,215.8,128.6,216.8,131.2,216.8z"/>
<path class="st0" d="M274.5,203.6c-1.9-1.9-4.4-2.9-7.1-2.9c-2.6,0-5.2,1.1-7.1,2.9s-2.9,4.4-2.9,7.1s1.1,5.2,2.9,7.1
	s4.4,2.9,7.1,2.9c2.6,0,5.2-1.1,7.1-2.9c1.9-1.9,2.9-4.4,2.9-7.1S276.3,205.5,274.5,203.6z"/>
<path class="st0" d="M302.4,185.7c2.6,0,5.2-1.1,7.1-2.9s2.9-4.4,2.9-7.1s-1.1-5.2-2.9-7.1s-4.4-2.9-7.1-2.9c-2.6,0-5.2,1.1-7.1,2.9
	s-2.9,4.4-2.9,7.1s1.1,5.2,2.9,7.1S299.8,185.7,302.4,185.7z"/>
<path class="st0" d="M482,246h-27.9l49.1-49.1c5.7-5.7,8.8-13.2,8.8-21.2s-3.1-15.5-8.8-21.2l-44.6-44.6c-3.9-3.9-10.2-3.9-14.1,0
	c-5.7,5.7-13.2,8.8-21.2,8.8s-15.5-3.1-21.2-8.8c-5.7-5.7-8.8-13.2-8.8-21.2s3.1-15.5,8.8-21.2c1.9-1.9,2.9-4.4,2.9-7.1
	s-1.1-5.2-2.9-7.1L357.6,8.8C351.9,3.1,344.4,0,336.3,0c-8,0-15.5,3.1-21.2,8.8L150,173.9c-3.9,3.9-3.9,10.2,0,14.1s10.2,3.9,14.1,0
	L329.3,22.9c1.9-1.9,4.4-2.9,7.1-2.9s5.2,1,7.1,2.9l38.2,38.2c-5.4,8.1-8.3,17.6-8.3,27.6c0,13.4,5.2,25.9,14.6,35.4
	c9.4,9.4,22,14.6,35.4,14.6c10,0,19.5-2.9,27.6-8.3l38.2,38.2c3.9,3.9,3.9,10.2,0,14.1L425.8,246H382l32.9-32.9
	c3.9-3.9,3.9-10.2,0-14.1L313,97.2c-3.9-3.9-10.2-3.9-14.1,0L150,246H30c-16.5,0-30,13.5-30,30v63c0,5.5,4.5,10,10,10
	c16.5,0,30,13.5,30,30s-13.5,30-30,30c-5.5,0-10,4.5-10,10v63c0,16.5,13.5,30,30,30h452c16.5,0,30-13.5,30-30v-63
	c0-5.5-4.5-10-10-10c-16.5,0-30-13.5-30-30s13.5-30,30-30c5.5,0,10-4.5,10-10v-63C512,259.5,498.5,246,482,246z M305.9,118.4
	l87.7,87.7L353.7,246h-39.6l29.3-29.3c3.9-3.9,3.9-10.2,0-14.1c-3.9-3.9-10.2-3.9-14.1,0L285.8,246H178.3L305.9,118.4z M492,330
	c-22.8,4.6-40,24.8-40,49c0,24.1,17.2,44.3,40,49v54c0,5.5-4.5,10-10,10H30c-5.5,0-10-4.5-10-10v-54c22.8-4.6,40-24.9,40-49
	s-17.2-44.3-40-49v-54c0-5.5,4.5-10,10-10h452c5.5,0,10,4.5,10,10V330z"/>
<path class="st0" d="M213.6,362.1c1.9-1.9,2.9-4.4,2.9-7.1c0-2.6-1.1-5.2-2.9-7.1s-4.4-2.9-7.1-2.9s-5.2,1.1-7.1,2.9
	s-2.9,4.4-2.9,7.1c0,2.6,1.1,5.2,2.9,7.1c1.9,1.9,4.4,2.9,7.1,2.9S211.7,363.9,213.6,362.1z"/>
<path class="st0" d="M312.6,362.1c1.9-1.9,2.9-4.4,2.9-7.1c0-2.6-1.1-5.2-2.9-7.1s-4.4-2.9-7.1-2.9s-5.2,1.1-7.1,2.9
	s-2.9,4.4-2.9,7.1c0,2.6,1.1,5.2,2.9,7.1c1.9,1.9,4.4,2.9,7.1,2.9S310.7,363.9,312.6,362.1z"/>
<path class="st0" d="M263.1,362.1c1.9-1.9,2.9-4.4,2.9-7.1c0-2.6-1.1-5.2-2.9-7.1s-4.4-2.9-7.1-2.9s-5.2,1.1-7.1,2.9
	s-2.9,4.4-2.9,7.1c0,2.6,1.1,5.2,2.9,7.1c1.9,1.9,4.4,2.9,7.1,2.9S261.2,363.9,263.1,362.1z"/>
<path class="st0" d="M157,365c2.6,0,5.2-1.1,7.1-2.9c1.9-1.9,2.9-4.4,2.9-7.1c0-2.6-1.1-5.2-2.9-7.1s-4.4-2.9-7.1-2.9
	s-5.2,1.1-7.1,2.9s-2.9,4.4-2.9,7.1c0,2.6,1.1,5.2,2.9,7.1C151.8,363.9,154.4,365,157,365z"/>
<path class="st0" d="M362.1,362.1c1.9-1.9,2.9-4.4,2.9-7.1c0-2.6-1.1-5.2-2.9-7.1s-4.4-2.9-7.1-2.9s-5.2,1.1-7.1,2.9
	s-2.9,4.4-2.9,7.1c0,2.6,1.1,5.2,2.9,7.1c1.9,1.9,4.4,2.9,7.1,2.9S360.2,363.9,362.1,362.1z"/>
<path class="st0" d="M157,413h198c5.5,0,10-4.5,10-10s-4.5-10-10-10H157c-5.5,0-10,4.5-10,10S151.5,413,157,413z"/>
<path class="st0" d="M193.3,441c-2.6,0-5.2,1.1-7.1,2.9s-2.9,4.4-2.9,7.1c0,2.6,1.1,5.2,2.9,7.1c1.9,1.9,4.4,2.9,7.1,2.9
	c2.6,0,5.2-1.1,7.1-2.9c1.9-1.9,2.9-4.4,2.9-7.1c0-2.6-1.1-5.2-2.9-7.1C198.5,442.1,196,441,193.3,441z"/>
<path class="st0" d="M408,297H104c-5.5,0-10,4.5-10,10v144c0,5.5,4.5,10,10,10h41.7c5.5,0,10-4.5,10-10s-4.5-10-10-10H114V317h284
	v124H235.7c-5.5,0-10,4.5-10,10s4.5,10,10,10H408c5.5,0,10-4.5,10-10V307C418,301.5,413.5,297,408,297z"/>
</svg>
