<?xml version="1.0" encoding="utf-8"?>
<!-- Generator: Adobe Illustrator 22.1.0, SVG Export Plug-In . SVG Version: 6.00 Build 0)  -->
<svg version="1.1" id="Capa_1" xmlns="http://www.w3.org/2000/svg" xmlns:xlink="http://www.w3.org/1999/xlink" x="0px" y="0px"
	 viewBox="0 0 512 512" style="enable-background:new 0 0 512 512;" xml:space="preserve">
<style type="text/css">
	.st0{fill:#434A53;}
</style>
<g>
	<g>
		<path class="st0" d="M450.4,3.7C444.7,1.3,438.5,0,432,0c-26.5,0-48,21.5-48,48v22L450.4,3.7z"/>
		<path class="st0" d="M480,96.3V90L452.9,117c2.8,1.4,5.4,3,7.8,4.8c0,0,0.1,0.1,0.2,0.1c3.7,2.8,7.1,6.3,9.8,10
			c0.1,0.1,0.2,0.2,0.2,0.3c2.6,3.6,4.5,7.6,6.1,11.8c0.3,0.8,0.5,1.7,0.8,2.5c1.3,4.3,2.1,8.7,2.1,13.5c0,4.7-0.9,9.2-2.2,13.4
			c-0.3,0.8-0.5,1.7-0.8,2.5c-1.5,4.2-3.5,8.2-6.1,11.8c-0.1,0.1-0.2,0.2-0.2,0.3c-2.8,3.8-6.1,7.2-9.8,10c-0.1,0.1-0.1,0.1-0.2,0.1
			c-3.9,2.9-8.2,5.2-12.8,6.9c-5,1.8-10.4,3-16,3c-5.7,0-11-1.2-16-3c-4.6-1.6-8.9-4-12.8-6.9c-0.1,0-0.1-0.1-0.2-0.1
			c-3.8-2.8-7.1-6.2-9.9-10c-0.1-0.1-0.2-0.2-0.2-0.3c-1.5-2.1-2.8-4.4-3.9-6.8l-23.4,23.4c5,7.4,11.2,13.9,18.4,19.3V464
			c0,26.5,21.5,48,48,48s48-21.5,48-48V223.6c19.3-14.6,32-37.5,32-63.6S499.3,111,480,96.3z M448,464c0,8.8-7.2,16-16,16
			c-8.8,0-16-7.2-16-16V238.4c5.2,1.1,10.5,1.6,16,1.6c5.5,0,10.8-0.6,16-1.6V464z"/>
	</g>
	<path class="st0" d="M26.2,502.3c-4.2,0-8.4-1.6-11.7-4.8c-6.4-6.4-6.4-16.9,0-23.3L474.1,14.5c6.4-6.4,16.9-6.4,23.3,0
		c6.4,6.4,6.4,16.9,0,23.3L37.9,497.5C34.7,500.7,30.4,502.3,26.2,502.3z"/>
	<g>
		<path class="st0" d="M240,214V48c0-8.8,7.2-16,16-16s16,7.2,16,16v134l32-32V48c0-26.5-21.5-48-48-48s-48,21.5-48,48v198L240,214z
			"/>
		<path class="st0" d="M304,288.3V266l-39,39c2.4,0.5,4.7,1.2,7,2c4.6,1.7,8.9,4,12.8,6.9c0,0,0.1,0.1,0.2,0.1
			c3.7,2.8,7.1,6.3,9.8,10c0.1,0.1,0.2,0.2,0.2,0.3c2.6,3.6,4.5,7.6,6.1,11.8c0.3,0.8,0.5,1.7,0.8,2.5c1.3,4.3,2.1,8.7,2.1,13.5
			c0,4.7-0.9,9.2-2.2,13.4c-0.3,0.8-0.5,1.7-0.8,2.5c-1.5,4.2-3.5,8.2-6.1,11.8c-0.1,0.1-0.2,0.2-0.2,0.3c-2.8,3.8-6.1,7.2-9.8,10
			c-0.1,0.1-0.1,0.1-0.2,0.1c-3.9,2.9-8.2,5.2-12.8,6.9c-5,1.8-10.4,3-16,3c-5.6,0-11-1.2-16-3c-4.6-1.6-8.9-4-12.8-6.9
			c0,0-0.1-0.1-0.2-0.1c-3.8-2.8-7.1-6.2-9.9-10c-0.1-0.1-0.2-0.2-0.2-0.3c-2.6-3.6-4.5-7.6-6-11.8c-0.3-0.8-0.5-1.7-0.8-2.5
			c-0.4-1.5-0.8-2.9-1.1-4.4l-25.2,25.2c5.6,11.6,14,21.7,24.2,29.4V464c0,26.5,21.5,48,48,48s48-21.5,48-48v-48.4
			c19.3-14.6,32-37.5,32-63.6C336,325.9,323.3,303,304,288.3z M272,464c0,8.8-7.2,16-16,16c-8.8,0-16-7.2-16-16v-33.6
			c5.2,1.1,10.5,1.6,16,1.6c5.5,0,10.8-0.6,16-1.6V464z"/>
	</g>
	<g>
		<path class="st0" d="M32,223.6V422l32-32V238.4c5.2,1.1,10.5,1.6,16,1.6s10.8-0.6,16-1.6V358l32-32V223.6
			c19.3-14.6,32-37.5,32-63.6s-12.7-49-32-63.7V48c0-26.5-21.5-48-48-48S32,21.5,32,48v48.3C12.7,111,0,133.9,0,160
			S12.7,209,32,223.6z M64,48c0-8.8,7.2-16,16-16s16,7.2,16,16v33.6c-5.2-1-10.5-1.6-16-1.6s-10.8,0.6-16,1.6V48z M34.2,146.5
			c0.3-0.8,0.5-1.7,0.8-2.5c1.5-4.2,3.5-8.2,6-11.8c0.1-0.1,0.2-0.2,0.2-0.3c2.8-3.8,6.1-7.2,9.9-10c0.1,0,0.1-0.1,0.2-0.1
			c3.8-2.9,8.1-5.2,12.8-6.9c5-1.8,10.4-2.9,16-2.9s11,1.2,16,2.9c4.6,1.7,8.9,4,12.8,6.9c0,0,0.1,0.1,0.2,0.1
			c3.8,2.8,7.1,6.3,9.9,10c0.1,0.1,0.2,0.2,0.2,0.3c2.6,3.6,4.5,7.6,6,11.8c0.3,0.8,0.5,1.6,0.8,2.5c1.3,4.3,2.2,8.8,2.2,13.5
			c0,4.7-0.9,9.2-2.2,13.4c-0.3,0.8-0.5,1.7-0.8,2.5c-1.5,4.2-3.5,8.2-6,11.8c-0.1,0.1-0.2,0.2-0.2,0.3c-2.8,3.8-6.1,7.2-9.9,10
			c-0.1,0.1-0.1,0.1-0.2,0.1c-3.9,2.9-8.2,5.2-12.8,6.9c-5,1.8-10.3,3-16,3s-11-1.2-16-3c-4.6-1.6-8.9-4-12.8-6.9
			c0,0-0.1-0.1-0.2-0.1c-3.8-2.8-7.1-6.2-9.9-10c-0.1-0.1-0.2-0.2-0.2-0.3c-2.6-3.6-4.5-7.6-6-11.8c-0.3-0.8-0.5-1.7-0.8-2.5
			c-1.3-4.3-2.1-8.7-2.1-13.4C32,155.3,32.9,150.8,34.2,146.5z"/>
		<path class="st0" d="M61.6,508.3c5.7,2.4,11.9,3.7,18.4,3.7c26.5,0,48-21.5,48-48v-22L61.6,508.3z"/>
	</g>
</g>
</svg>
