<?xml version="1.0" encoding="utf-8"?>
<!-- Generator: Adobe Illustrator 22.1.0, SVG Export Plug-In . SVG Version: 6.00 Build 0)  -->
<svg version="1.1" id="Capa_1" xmlns="http://www.w3.org/2000/svg" xmlns:xlink="http://www.w3.org/1999/xlink" x="0px" y="0px"
	 viewBox="0 0 512 512" style="enable-background:new 0 0 512 512;" xml:space="preserve">
<style type="text/css">
	.st0{fill:#434A53;}
</style>
<g>
	<g id="settings_2_">
		<path class="st0" d="M128,96.3V48c0-26.5-21.5-48-48-48S32,21.5,32,48v48.3C12.7,111,0,133.9,0,160s12.7,49,32,63.6V464
			c0,26.5,21.5,48,48,48s48-21.5,48-48V223.6c19.3-14.6,32-37.5,32-63.6S147.3,111,128,96.3z M64,48c0-8.8,7.2-16,16-16
			s16,7.2,16,16v33.6c-5.2-1-10.5-1.6-16-1.6s-10.8,0.6-16,1.6V48z M96,464c0,8.8-7.2,16-16,16s-16-7.2-16-16V238.4
			c5.2,1.1,10.5,1.6,16,1.6s10.8-0.6,16-1.6V464z M125.8,173.4c-0.3,0.8-0.5,1.7-0.8,2.5c-1.5,4.2-3.5,8.2-6,11.8
			c-0.1,0.1-0.2,0.2-0.2,0.3c-2.8,3.8-6.1,7.2-9.9,10c-0.1,0.1-0.1,0.1-0.2,0.1c-3.9,2.9-8.2,5.2-12.8,6.9c-5,1.8-10.3,3-16,3
			s-11-1.2-16-3c-4.6-1.6-8.9-4-12.8-6.9c0,0-0.1-0.1-0.2-0.1c-3.8-2.8-7.1-6.2-9.9-10c-0.1-0.1-0.2-0.2-0.2-0.3
			c-2.6-3.6-4.5-7.6-6-11.8c-0.3-0.8-0.5-1.7-0.8-2.5c-1.3-4.3-2.1-8.7-2.1-13.4c0-4.7,0.9-9.2,2.2-13.5c0.3-0.8,0.5-1.7,0.8-2.5
			c1.5-4.2,3.5-8.2,6-11.8c0.1-0.1,0.2-0.2,0.2-0.3c2.8-3.8,6.1-7.2,9.9-10c0.1,0,0.1-0.1,0.2-0.1c3.8-2.9,8.1-5.2,12.8-6.9
			c5-1.8,10.4-2.9,16-2.9s11,1.2,16,2.9c4.6,1.7,8.9,4,12.8,6.9c0,0,0.1,0.1,0.2,0.1c3.8,2.8,7.1,6.3,9.9,10
			c0.1,0.1,0.2,0.2,0.2,0.3c2.6,3.6,4.5,7.6,6,11.8c0.3,0.8,0.5,1.6,0.8,2.5c1.3,4.3,2.2,8.8,2.2,13.5
			C128,164.7,127.1,169.2,125.8,173.4z"/>
		<path class="st0" d="M480,96.3V48c0-26.5-21.5-48-48-48s-48,21.5-48,48v48.3c-19.3,14.6-32,37.6-32,63.7s12.7,49,32,63.6V464
			c0,26.5,21.5,48,48,48s48-21.5,48-48V223.6c19.3-14.6,32-37.5,32-63.6S499.3,111,480,96.3z M416,48c0-8.8,7.2-16,16-16
			s16,7.2,16,16v33.6c-5.2-1-10.5-1.6-16-1.6c-5.5,0-10.8,0.6-16,1.6V48z M448,464c0,8.8-7.2,16-16,16s-16-7.2-16-16V238.4
			c5.2,1.1,10.5,1.6,16,1.6c5.5,0,10.8-0.6,16-1.6V464z M477.8,173.4c-0.3,0.8-0.5,1.7-0.8,2.5c-1.5,4.2-3.5,8.2-6.1,11.8
			c-0.1,0.1-0.2,0.2-0.2,0.3c-2.8,3.8-6.1,7.2-9.8,10c-0.1,0.1-0.1,0.1-0.2,0.1c-3.9,2.9-8.2,5.2-12.8,6.9c-5,1.8-10.4,3-16,3
			c-5.7,0-11-1.2-16-3c-4.6-1.6-8.9-4-12.8-6.9c-0.1,0-0.1-0.1-0.2-0.1c-3.8-2.8-7.1-6.2-9.9-10c-0.1-0.1-0.2-0.2-0.2-0.3
			c-2.6-3.6-4.5-7.6-6-11.8c-0.3-0.8-0.5-1.7-0.8-2.5c-1.3-4.3-2.1-8.7-2.1-13.4c0-4.7,0.9-9.2,2.2-13.5c0.3-0.8,0.5-1.7,0.8-2.5
			c1.5-4.2,3.5-8.2,6-11.8c0.1-0.1,0.2-0.2,0.2-0.3c2.8-3.8,6.1-7.2,9.9-10c0.1,0,0.1-0.1,0.2-0.1c3.8-2.9,8.2-5.2,12.8-6.9
			c5-1.8,10.3-2.9,16-2.9c5.6,0,11,1.2,16,2.9c4.6,1.7,8.9,4,12.8,6.9c0,0,0.1,0.1,0.2,0.1c3.7,2.8,7.1,6.3,9.8,10
			c0.1,0.1,0.2,0.2,0.2,0.3c2.6,3.6,4.5,7.6,6.1,11.8c0.3,0.8,0.5,1.7,0.8,2.5c1.3,4.3,2.1,8.7,2.1,13.5
			C480,164.7,479.1,169.2,477.8,173.4z"/>
		<path class="st0" d="M304,288.3V48c0-26.5-21.5-48-48-48s-48,21.5-48,48v240.3c-19.3,14.6-32,37.6-32,63.7s12.7,49,32,63.6V464
			c0,26.5,21.5,48,48,48s48-21.5,48-48v-48.4c19.3-14.6,32-37.5,32-63.6S323.3,303,304,288.3z M240,48c0-8.8,7.2-16,16-16
			c8.8,0,16,7.2,16,16v225.6c-5.2-1-10.5-1.6-16-1.6c-5.5,0-10.8,0.6-16,1.6V48z M272,464c0,8.8-7.2,16-16,16s-16-7.2-16-16v-33.6
			c5.2,1.1,10.5,1.6,16,1.6c5.5,0,10.8-0.6,16-1.6V464z M301.8,365.4c-0.3,0.8-0.5,1.7-0.8,2.5c-1.5,4.2-3.5,8.2-6.1,11.8
			c-0.1,0.1-0.2,0.2-0.2,0.3c-2.8,3.8-6.1,7.2-9.8,10c-0.1,0.1-0.1,0.1-0.2,0.1c-3.9,2.9-8.2,5.2-12.8,6.9c-5,1.8-10.4,3-16,3
			c-5.6,0-11-1.2-16-3c-4.6-1.6-8.9-4-12.8-6.9c0,0-0.1-0.1-0.2-0.1c-3.8-2.8-7.1-6.2-9.9-10c-0.1-0.1-0.2-0.2-0.2-0.3
			c-2.6-3.6-4.5-7.6-6-11.8c-0.3-0.8-0.5-1.7-0.8-2.5c-1.3-4.3-2.1-8.7-2.1-13.4c0-4.7,0.9-9.2,2.2-13.5c0.3-0.8,0.5-1.7,0.8-2.5
			c1.5-4.2,3.5-8.2,6-11.8c0.1-0.1,0.2-0.2,0.2-0.3c2.8-3.8,6.1-7.2,9.9-10c0.1,0,0.1-0.1,0.2-0.1c3.9-2.9,8.2-5.2,12.8-6.9
			c5-1.8,10.3-2.9,16-2.9c5.6,0,11,1.2,16,2.9c4.6,1.7,8.9,4,12.8,6.9c0,0,0.1,0.1,0.2,0.1c3.7,2.8,7.1,6.3,9.8,10
			c0.1,0.1,0.2,0.2,0.2,0.3c2.6,3.6,4.5,7.6,6.1,11.8c0.3,0.8,0.5,1.7,0.8,2.5c1.3,4.3,2.1,8.7,2.1,13.5
			C304,356.7,303.1,361.2,301.8,365.4z"/>
	</g>
</g>
</svg>
