<?xml version="1.0" encoding="utf-8"?>
<!-- Generator: Adobe Illustrator 23.0.1, SVG Export Plug-In . SVG Version: 6.00 Build 0)  -->
<svg version="1.1" id="Capa_1" xmlns="http://www.w3.org/2000/svg" xmlns:xlink="http://www.w3.org/1999/xlink" x="0px" y="0px"
	 viewBox="0 0 512 512" style="enable-background:new 0 0 512 512;" xml:space="preserve">
<style type="text/css">
	.st0{fill:#FFFFFF;}
</style>
<g>
	<path class="st0" d="M370.1,0H141.9c-19,0-34.6,15.6-34.6,34.6v442.8c0,19,15.6,34.6,34.6,34.6h228.3c19,0,34.6-15.5,34.6-34.6
		V34.6C404.7,15.6,389.1,0,370.1,0z M219.5,24.9h73c2.3,0,4.2,1.9,4.2,4.2c0,2.3-1.9,4.2-4.2,4.2h-73c-2.3,0-4.2-1.9-4.2-4.2
		C215.3,26.8,217.2,24.9,219.5,24.9z M256,494.7c-9.6,0-17.3-7.7-17.3-17.3s7.7-17.3,17.3-17.3s17.3,7.7,17.3,17.3
		S265.6,494.7,256,494.7z M380.7,448H131.3V54.8h249.3V448z"/>
</g>
</svg>
