<?xml version="1.0" encoding="utf-8"?>
<!-- Generator: Adobe Illustrator 23.0.1, SVG Export Plug-In . SVG Version: 6.00 Build 0)  -->
<svg version="1.1" id="Capa_1" xmlns="http://www.w3.org/2000/svg" xmlns:xlink="http://www.w3.org/1999/xlink" x="0px" y="0px"
	 viewBox="0 0 512 512" style="enable-background:new 0 0 512 512;" xml:space="preserve">
<style type="text/css">
	.st0{fill:#FFFFFF;}
</style>
<g>
	<path class="st0" d="M508.9,113c-2.8-3.6-7.1-5.7-11.7-5.7H122l-16.4-63.1c-1.7-6.5-7.6-11-14.3-11H14.8C6.6,33.2,0,39.8,0,48
		s6.6,14.8,14.8,14.8h65.1l16.4,63.1l0,0L154.1,348c1.7,6.5,7.6,11,14.3,11h271.1c6.7,0,12.6-4.5,14.3-11l57.8-222.2
		C512.7,121.3,511.7,116.6,508.9,113z M231.9,329.5h-52.1L168.2,285h63.7V329.5z M231.9,255.4h-71.4l-11.6-44.6h83V255.4
		L231.9,255.4z M231.9,181.4h-90.6l-11.6-44.6h102.2L231.9,181.4L231.9,181.4z M346.4,329.5h-85.1V285h85.1V329.5z M346.4,255.4
		h-85.1v-44.6h85.1V255.4z M346.4,181.4h-85.1v-44.6h85.1V181.4z M428,329.5h-52.1V285h63.7L428,329.5z M447.3,255.4h-71.4v-44.6h83
		L447.3,255.4z M466.6,181.4H376v-44.6h102.2L466.6,181.4z"/>
	<path class="st0" d="M207.5,371c-29.7,0-53.9,24.2-53.9,53.9c0,29.7,24.2,53.9,53.9,53.9s53.9-24.2,53.9-53.9S237.2,371,207.5,371z
		 M207.5,449.3c-13.4,0-24.4-10.9-24.4-24.4c0-13.4,10.9-24.4,24.4-24.4c13.4,0,24.4,10.9,24.4,24.4S220.9,449.3,207.5,449.3z"/>
	<path class="st0" d="M400.3,371c-29.7,0-53.9,24.2-53.9,53.9c0,29.7,24.2,53.9,53.9,53.9c29.7,0,53.9-24.2,53.9-53.9
		C454.2,395.2,430,371,400.3,371z M400.3,449.3c-13.4,0-24.4-10.9-24.4-24.4c0-13.4,10.9-24.4,24.4-24.4c13.4,0,24.4,10.9,24.4,24.4
		C424.7,438.4,413.8,449.3,400.3,449.3z"/>
</g>
</svg>
