<?xml version="1.0" encoding="utf-8"?>
<!-- Generator: Adobe Illustrator 22.1.0, SVG Export Plug-In . SVG Version: 6.00 Build 0)  -->
<svg version="1.1" id="Capa_1" xmlns="http://www.w3.org/2000/svg" xmlns:xlink="http://www.w3.org/1999/xlink" x="0px" y="0px"
	 viewBox="0 0 512 512" style="enable-background:new 0 0 512 512;" xml:space="preserve">
<style type="text/css">
	.st0{fill:#7C8187;}
</style>
<g>
	<path class="st0" d="M313.7,252.1c-6.2-4.1-13.7-7.7-22.4-10.5c-8.6-2.8-18.4-5.5-29-7.8c-8.4-2-14.5-3.5-18.1-4.6
		c-3.6-1-7.1-2.4-10.5-4.2c-3.3-1.7-6-3.8-7.8-6.1c-1.8-2.2-2.6-4.8-2.6-7.9c0-5,2.7-9.2,8.1-12.9c5.7-3.8,13.3-5.8,22.7-5.8
		c10.1,0,17.5,1.7,21.9,5.2c4.5,3.5,8.5,8.6,11.8,15c2.8,5,5.4,8.5,7.8,10.7c2.6,2.4,6.4,3.6,11.3,3.6c5.3,0,9.9-1.9,13.5-5.8
		c3.6-3.8,5.4-8.2,5.4-13c0-5-1.4-10.2-4.1-15.4c-2.7-5.1-7-10.1-12.7-14.7c-5.7-4.6-13-8.3-21.6-11.1c-8.6-2.7-18.9-4.1-30.6-4.1
		c-14.6,0-27.6,2.1-38.5,6.2c-11,4.2-19.6,10.3-25.4,18.2c-5.9,7.9-8.9,17.1-8.9,27.3c0,10.7,2.9,19.8,8.5,27
		c5.5,7.1,13.1,12.8,22.5,17c9.2,4,20.7,7.6,34.3,10.6c10,2.1,18.1,4.2,24,6.1c5.7,1.8,10.4,4.5,14,7.9c3.4,3.3,5.1,7.5,5.1,12.8
		c0,6.7-3.2,12.2-9.7,16.8c-6.7,4.7-15.6,7.1-26.4,7.1c-7.9,0-14.3-1.2-19-3.5c-4.7-2.3-8.4-5.2-11-8.7c-2.7-3.6-5.2-8.3-7.5-13.7
		c-2.1-5-4.7-8.9-7.7-11.5c-3.2-2.7-7-4.1-11.5-4.1c-5.5,0-10.1,1.8-13.7,5.2c-3.6,3.5-5.5,7.8-5.5,12.7c0,7.9,2.8,16.1,8.4,24.4
		c5.5,8.2,12.8,14.8,21.6,19.7c12.3,6.7,28.1,10.1,46.9,10.1c15.7,0,29.5-2.5,41-7.4c11.6-5,20.6-12,26.6-20.8
		c6.1-8.9,9.2-19,9.2-30.1c0-9.3-1.8-17.3-5.3-23.7C325,261.7,320,256.3,313.7,252.1z M256,0C114.6,0,0,114.6,0,256
		c0,141.4,114.6,256,256,256s256-114.6,256-256C512,114.6,397.4,0,256,0z M317.4,399.4c-13,0-25.2-3.4-35.9-9.3
		c-7.8,1.5-15.8,2.3-24,2.3c-72.4,0-131.1-60.4-131.1-134.8c0-9.3,0.9-18.4,2.7-27.1c-6.6-11.6-10.4-25.1-10.4-39.6
		c0-43.2,34-78.2,76-78.2c14.9,0,28.7,4.4,40.4,12c7.3-1.3,14.8-2,22.4-2c72.4,0,131.1,60.4,131.1,134.8c0,9.9-1.1,19.6-3,28.9
		c5.1,10.5,7.9,22.3,7.9,34.7C393.4,364.3,359.3,399.4,317.4,399.4z"/>
</g>
</svg>
