<?xml version="1.0" encoding="utf-8"?>
<!-- Generator: Adobe Illustrator 23.0.1, SVG Export Plug-In . SVG Version: 6.00 Build 0)  -->
<svg version="1.1" id="Capa_1" xmlns="http://www.w3.org/2000/svg" xmlns:xlink="http://www.w3.org/1999/xlink" x="0px" y="0px"
	 viewBox="0 0 514 514" style="enable-background:new 0 0 514 514;" xml:space="preserve">
<style type="text/css">
	.st0{fill:#0FA2B0;}
</style>
<g>
	<g>
		<path class="st0" d="M257,1C115.8,1,1,115.8,1,257s114.8,256,256,256s256-114.8,256-256S398.2,1,257,1z M257,458.5
			c-111.1,0-201.5-90.4-201.5-201.5S145.9,55.5,257,55.5S458.5,145.9,458.5,257S368.1,458.5,257,458.5z"/>
		<path class="st0" d="M390.4,249.1h-115V110.8c0-11.6-9.4-21.1-21.1-21.1s-21.1,9.4-21.1,21.1v159.4c0,11.6,9.4,21.1,21.1,21.1
			h136.1c11.6,0,21.1-9.4,21.1-21.1S402.1,249.1,390.4,249.1z"/>
	</g>
</g>
</svg>
