<svg id="Capa_1" data-name="Capa 1" xmlns="http://www.w3.org/2000/svg" viewBox="0 0 512 512"><defs><style>.cls-1{fill:#fff;}</style></defs><title>user_avatar</title><path class="cls-1" d="M512,256C512,115,397.05,0,256,0S0,115,0,256c0,77.7,35.25,147.61,90.1,194.59a8.61,8.61,0,0,0,2.6,1.94A253.29,253.29,0,0,0,256.63,512c61.38,0,118.22-22.19,162.61-58.11a10.25,10.25,0,0,0,5.86-4.6C478.08,401.64,512,333.07,512,256ZM23.52,256C23.52,128,128,23.52,256,23.52S488.54,128,488.54,256a231,231,0,0,1-65.31,161.33c-6.53-30.71-26.12-83-86.23-116.88,13.73-17,21.53-39.19,21.53-62.71a101.9,101.9,0,0,0-203.79,0c0,23.52,8.47,45,21.53,62.71C115.62,334.4,96,386.65,90.16,417.36A228.06,228.06,0,0,1,23.52,256Zm154.14-17.66A78.37,78.37,0,1,1,256,316.74,78.59,78.59,0,0,1,177.66,238.37ZM111,437.56c1.33-18.93,11.73-83,82.3-118.88A101.25,101.25,0,0,0,256,340.2,103.65,103.65,0,0,0,319.4,318c69.91,35.92,81,98.63,83,118.89a232.77,232.77,0,0,1-145.61,51.58C201.18,488.54,150.87,469.61,111,437.56Z"/></svg>